<svg version="1.2" baseProfile="tiny-ps" xmlns="http://www.w3.org/2000/svg" viewBox="0 0 3643 1593" width="3643" height="1593">
	<title>Layer</title>
	<defs>
		<linearGradient id="grd1" gradientUnits="userSpaceOnUse"  x1="1725.49" y1="304.83" x2="640.61" y2="234.45">
			<stop offset="0" stop-color="#602e80"  />
			<stop offset="0.94" stop-color="#22046f"  />
		</linearGradient>
		<linearGradient id="grd2" gradientUnits="userSpaceOnUse"  x1="1631.24" y1="325.51" x2="780.3" y2="253.93">
			<stop offset="0.12" stop-color="#542077"  />
			<stop offset="1" stop-color="#21013f"  />
		</linearGradient>
		<linearGradient id="grd3" gradientUnits="userSpaceOnUse"  x1="1530.95" y1="350.13" x2="816.37" y2="247.62">
			<stop offset="0.06" stop-color="#481074"  />
			<stop offset="0.22" stop-color="#361074"  />
			<stop offset="1" stop-color="#1f0026"  />
		</linearGradient>
		<linearGradient id="grd4" gradientUnits="userSpaceOnUse"  x1="15880.082" y1="5915.247" x2="15932.327" y2="5915.247">
			<stop offset="0.06" stop-color="#481074"  />
			<stop offset="0.22" stop-color="#361074"  />
			<stop offset="1" stop-color="#1f0026"  />
		</linearGradient>
		<linearGradient id="grd5" gradientUnits="userSpaceOnUse"  x1="5366.44" y1="1267.784" x2="5370.38" y2="1267.784">
			<stop offset="0.06" stop-color="#481074"  />
			<stop offset="0.22" stop-color="#361074"  />
			<stop offset="1" stop-color="#1f0026"  />
		</linearGradient>
		<linearGradient id="grd6" gradientUnits="userSpaceOnUse"  x1="9800.151" y1="1743.061" x2="9815.991" y2="1743.061">
			<stop offset="0.06" stop-color="#481074"  />
			<stop offset="0.22" stop-color="#361074"  />
			<stop offset="1" stop-color="#1f0026"  />
		</linearGradient>
		<linearGradient id="grd7" gradientUnits="userSpaceOnUse"  x1="8782.497" y1="2034.293" x2="8798.338" y2="2034.293">
			<stop offset="0.06" stop-color="#481074"  />
			<stop offset="0.22" stop-color="#361074"  />
			<stop offset="1" stop-color="#1f0026"  />
		</linearGradient>
		<linearGradient id="grd8" gradientUnits="userSpaceOnUse"  x1="9757.323" y1="1688.331" x2="9773.163" y2="1688.331">
			<stop offset="0.06" stop-color="#481074"  />
			<stop offset="0.22" stop-color="#361074"  />
			<stop offset="1" stop-color="#1f0026"  />
		</linearGradient>
		<linearGradient id="grd9" gradientUnits="userSpaceOnUse"  x1="9035.031" y1="1954.127" x2="9050.871" y2="1954.127">
			<stop offset="0.06" stop-color="#481074"  />
			<stop offset="0.22" stop-color="#361074"  />
			<stop offset="1" stop-color="#1f0026"  />
		</linearGradient>
		<linearGradient id="grd10" gradientUnits="userSpaceOnUse"  x1="13084.548" y1="2850.073" x2="13120.07" y2="2850.073">
			<stop offset="0.06" stop-color="#481074"  />
			<stop offset="0.22" stop-color="#361074"  />
			<stop offset="1" stop-color="#1f0026"  />
		</linearGradient>
		<linearGradient id="grd11" gradientUnits="userSpaceOnUse"  x1="7913.152" y1="1461.953" x2="7923.52" y2="1461.953">
			<stop offset="0.06" stop-color="#481074"  />
			<stop offset="0.22" stop-color="#361074"  />
			<stop offset="1" stop-color="#1f0026"  />
		</linearGradient>
		<linearGradient id="grd12" gradientUnits="userSpaceOnUse"  x1="5061.753" y1="865.054" x2="5064.329" y2="865.054">
			<stop offset="0.06" stop-color="#481074"  />
			<stop offset="0.22" stop-color="#361074"  />
			<stop offset="1" stop-color="#1f0026"  />
		</linearGradient>
		<linearGradient id="grd13" gradientUnits="userSpaceOnUse"  x1="7707.555" y1="1563.183" x2="7717.923" y2="1563.183">
			<stop offset="0.06" stop-color="#481074"  />
			<stop offset="0.22" stop-color="#361074"  />
			<stop offset="1" stop-color="#1f0026"  />
		</linearGradient>
		<linearGradient id="grd14" gradientUnits="userSpaceOnUse"  x1="8327.847" y1="1476.588" x2="8338.216" y2="1476.588">
			<stop offset="0.06" stop-color="#481074"  />
			<stop offset="0.22" stop-color="#361074"  />
			<stop offset="1" stop-color="#1f0026"  />
		</linearGradient>
		<linearGradient id="grd15" gradientUnits="userSpaceOnUse"  x1="8078.659" y1="1455.961" x2="8089.027" y2="1455.961">
			<stop offset="0.06" stop-color="#481074"  />
			<stop offset="0.22" stop-color="#361074"  />
			<stop offset="1" stop-color="#1f0026"  />
		</linearGradient>
		<linearGradient id="grd16" gradientUnits="userSpaceOnUse"  x1="17098.153" y1="2975.11" x2="17158.527" y2="2975.11">
			<stop offset="0.06" stop-color="#481074"  />
			<stop offset="0.22" stop-color="#361074"  />
			<stop offset="1" stop-color="#1f0026"  />
		</linearGradient>
		<linearGradient id="grd17" gradientUnits="userSpaceOnUse"  x1="1661.7" y1="249.38" x2="1680.89" y2="249.38">
			<stop offset="0" stop-color="#ff2e72"  />
			<stop offset="0.51" stop-color="#ff303f"  />
			<stop offset="1" stop-color="#7f4086"  />
		</linearGradient>
		<linearGradient id="grd18" gradientUnits="userSpaceOnUse"  x1="34870.016" y1="4067.19" x2="35238.275" y2="4067.19">
			<stop offset="0" stop-color="#ff2e72"  />
			<stop offset="0.51" stop-color="#ff303f"  />
			<stop offset="1" stop-color="#7f4086"  />
		</linearGradient>
		<linearGradient id="grd19" gradientUnits="userSpaceOnUse"  x1="30611.557" y1="4143.709" x2="30902.601" y2="4143.709">
			<stop offset="0" stop-color="#ff2e72"  />
			<stop offset="0.51" stop-color="#ff303f"  />
			<stop offset="1" stop-color="#7f4086"  />
		</linearGradient>
		<linearGradient id="grd20" gradientUnits="userSpaceOnUse"  x1="1695.56" y1="244.75" x2="1711.78" y2="244.75">
			<stop offset="0.06" stop-color="#2e0b5a"  />
			<stop offset="0.54" stop-color="#1f0026"  />
			<stop offset="0.7" stop-color="#1f0026"  />
		</linearGradient>
		<linearGradient id="grd21" gradientUnits="userSpaceOnUse"  x1="23338.03" y1="4099.342" x2="23500.592" y2="4099.342">
			<stop offset="0.06" stop-color="#481074"  />
			<stop offset="0.22" stop-color="#361074"  />
			<stop offset="1" stop-color="#1f0026"  />
		</linearGradient>
		<linearGradient id="grd22" gradientUnits="userSpaceOnUse"  x1="1705.29" y1="245.35" x2="1694.19" y2="244.85">
			<stop offset="0" stop-color="#b59fc7"  />
			<stop offset="0.58" stop-color="#6d519a" stop-opacity="0" />
		</linearGradient>
		<linearGradient id="grd23" gradientUnits="userSpaceOnUse"  x1="1661.6" y1="327.94" x2="1725.06" y2="594.82">
			<stop offset="0" stop-color="#fba094"  />
			<stop offset="0.2" stop-color="#fb4d5b"  />
			<stop offset="0.69" stop-color="#361074"  />
			<stop offset="0.98" stop-color="#36fffe"  />
		</linearGradient>
		<linearGradient id="grd24" gradientUnits="userSpaceOnUse"  x1="1995" y1="626.813" x2="1995" y2="630.197">
			<stop offset="0" stop-color="#fba094"  />
			<stop offset="0.2" stop-color="#fb4d5b"  />
			<stop offset="0.69" stop-color="#361074"  />
			<stop offset="0.98" stop-color="#36fffe"  />
		</linearGradient>
		<linearGradient id="grd25" gradientUnits="userSpaceOnUse"  x1="1620.9" y1="343.61" x2="1640.98" y2="428.05">
			<stop offset="0" stop-color="#fba094"  />
			<stop offset="1" stop-color="#fb4d5b"  />
		</linearGradient>
		<linearGradient id="grd26" gradientUnits="userSpaceOnUse"  x1="68472.055" y1="9875.491" x2="70133.44" y2="9875.491">
			<stop offset="0" stop-color="#fba094"  />
			<stop offset="1" stop-color="#fb4d5b"  />
		</linearGradient>
		<linearGradient id="grd27" gradientUnits="userSpaceOnUse"  x1="27670.816" y1="4454.26" x2="27920.933" y2="4454.26">
			<stop offset="0" stop-color="#fba094"  />
			<stop offset="1" stop-color="#fb4d5b"  />
		</linearGradient>
		<linearGradient id="grd28" gradientUnits="userSpaceOnUse"  x1="116503.837" y1="16908.2" x2="122205.837" y2="16908.2">
			<stop offset="0" stop-color="#fba094"  />
			<stop offset="1" stop-color="#fb4d5b"  />
		</linearGradient>
		<linearGradient id="grd29" gradientUnits="userSpaceOnUse"  x1="64298.169" y1="19334.931" x2="66110.392" y2="19334.931">
			<stop offset="0" stop-color="#fba094"  />
			<stop offset="1" stop-color="#fb4d5b"  />
		</linearGradient>
		<linearGradient id="grd30" gradientUnits="userSpaceOnUse"  x1="269792.12" y1="22159.464" x2="294438.143" y2="22159.464">
			<stop offset="0" stop-color="#fba094"  />
			<stop offset="1" stop-color="#fb4d5b"  />
		</linearGradient>
		<linearGradient id="grd31" gradientUnits="userSpaceOnUse"  x1="62159.774" y1="10658.59" x2="63466.027" y2="10658.59">
			<stop offset="0" stop-color="#fba094"  />
			<stop offset="1" stop-color="#fb4d5b"  />
		</linearGradient>
		<linearGradient id="grd32" gradientUnits="userSpaceOnUse"  x1="38000.176" y1="6834.683" x2="38447.059" y2="6834.683">
			<stop offset="0" stop-color="#fba094"  />
			<stop offset="1" stop-color="#fb4d5b"  />
		</linearGradient>
		<linearGradient id="grd33" gradientUnits="userSpaceOnUse"  x1="1377.42" y1="158.67" x2="1280.53" y2="241.96">
			<stop offset="0" stop-color="#ffbe2d"  />
			<stop offset="0.35" stop-color="#fb4d5b"  />
			<stop offset="0.82" stop-color="#361074"  />
			<stop offset="1" stop-color="#3610fe"  />
		</linearGradient>
		<linearGradient id="grd34" gradientUnits="userSpaceOnUse"  x1="141476.271" y1="15103.688" x2="132592.263" y2="21856.742">
			<stop offset="0" stop-color="#ffbe2d"  />
			<stop offset="0.35" stop-color="#fb4d5b"  />
			<stop offset="0.82" stop-color="#361074"  />
			<stop offset="1" stop-color="#3610fe"  />
		</linearGradient>
		<linearGradient id="grd35" gradientUnits="userSpaceOnUse"  x1="1374.34" y1="161.04" x2="1322.62" y2="205.5">
			<stop offset="0" stop-color="#ffeec8"  />
			<stop offset="0.76" stop-color="#fdb2b8"  />
		</linearGradient>
		<linearGradient id="grd36" gradientUnits="userSpaceOnUse"  x1="66784.943" y1="20449.123" x2="60475.498" y2="25872.452">
			<stop offset="0" stop-color="#ffbe2d"  />
			<stop offset="0.35" stop-color="#fb4d5b"  />
			<stop offset="0.82" stop-color="#361074"  />
			<stop offset="1" stop-color="#3610fe"  />
		</linearGradient>
		<linearGradient id="grd37" gradientUnits="userSpaceOnUse"  x1="64642.965" y1="18048.79" x2="59127.967" y2="22236.474">
			<stop offset="0" stop-color="#ffbe2d"  />
			<stop offset="0.35" stop-color="#fb4d5b"  />
			<stop offset="0.82" stop-color="#361074"  />
			<stop offset="1" stop-color="#3610fe"  />
		</linearGradient>
		<linearGradient id="grd38" gradientUnits="userSpaceOnUse"  x1="56771.939" y1="18222.766" x2="53905.99" y2="20780.016">
			<stop offset="0" stop-color="#ffeec8"  />
			<stop offset="0.76" stop-color="#fdb2b8"  />
		</linearGradient>
		<linearGradient id="grd39" gradientUnits="userSpaceOnUse"  x1="189949.691" y1="16811.321" x2="163802.34" y2="39288.484">
			<stop offset="0" stop-color="#fba094"  />
			<stop offset="0.2" stop-color="#fb4d5b"  />
			<stop offset="0.69" stop-color="#361074"  />
			<stop offset="0.98" stop-color="#36fffe"  />
		</linearGradient>
		<linearGradient id="grd40" gradientUnits="userSpaceOnUse"  x1="159110.081" y1="16719.217" x2="140273.556" y2="32912.144">
			<stop offset="0" stop-color="#ffbe2d"  />
			<stop offset="0.35" stop-color="#fb4d5b"  />
			<stop offset="0.82" stop-color="#361074"  />
			<stop offset="1" stop-color="#3610fe"  />
		</linearGradient>
		<linearGradient id="grd41" gradientUnits="userSpaceOnUse"  x1="115394.924" y1="9992.182" x2="129454.265" y2="9992.182">
			<stop offset="0" stop-color="#ffbe2d"  />
			<stop offset="0.35" stop-color="#fb4d5b"  />
			<stop offset="0.82" stop-color="#361074"  />
			<stop offset="1" stop-color="#3610fe"  />
		</linearGradient>
		<linearGradient id="grd42" gradientUnits="userSpaceOnUse"  x1="134081.751" y1="10047.136" x2="152688.278" y2="10047.136">
			<stop offset="0" stop-color="#ffbe2d"  />
			<stop offset="0.35" stop-color="#fb4d5b"  />
			<stop offset="0.82" stop-color="#361074"  />
			<stop offset="1" stop-color="#3610fe"  />
		</linearGradient>
		<linearGradient id="grd43" gradientUnits="userSpaceOnUse"  x1="147412.223" y1="16292.331" x2="170006.583" y2="16292.331">
			<stop offset="0" stop-color="#ffbe2d"  />
			<stop offset="0.35" stop-color="#fb4d5b"  />
			<stop offset="0.82" stop-color="#361074"  />
			<stop offset="1" stop-color="#3610fe"  />
		</linearGradient>
		<linearGradient id="grd44" gradientUnits="userSpaceOnUse"  x1="89465.327" y1="8749.319" x2="96869.744" y2="8749.319">
			<stop offset="0" stop-color="#ffbe2d"  />
			<stop offset="0.35" stop-color="#fb4d5b"  />
			<stop offset="0.82" stop-color="#361074"  />
			<stop offset="1" stop-color="#3610fe"  />
		</linearGradient>
		<linearGradient id="grd45" gradientUnits="userSpaceOnUse"  x1="45055.968" y1="3477.701" x2="47071.121" y2="3477.701">
			<stop offset="0" stop-color="#ffbe2d"  />
			<stop offset="0.35" stop-color="#fb4d5b"  />
			<stop offset="0.82" stop-color="#361074"  />
			<stop offset="1" stop-color="#3610fe"  />
		</linearGradient>
		<linearGradient id="grd46" gradientUnits="userSpaceOnUse"  x1="104491.342" y1="7562.602" x2="115213.308" y2="7562.602">
			<stop offset="0" stop-color="#ffbe2d"  />
			<stop offset="0.35" stop-color="#fb4d5b"  />
			<stop offset="0.82" stop-color="#361074"  />
			<stop offset="1" stop-color="#3610fe"  />
		</linearGradient>
		<linearGradient id="grd47" gradientUnits="userSpaceOnUse"  x1="1118.09" y1="103.22" x2="1035.15" y2="174.53">
			<stop offset="0" stop-color="#d5eec8"  />
			<stop offset="0.76" stop-color="#e2ecff"  />
		</linearGradient>
		<linearGradient id="grd48" gradientUnits="userSpaceOnUse"  x1="905.89" y1="195.14" x2="891.56" y2="207.45">
			<stop offset="0.07" stop-color="#ffffd9"  />
			<stop offset="1" stop-color="#e132fe"  />
		</linearGradient>
		<linearGradient id="grd49" gradientUnits="userSpaceOnUse"  x1="902.47" y1="196.52" x2="886.54" y2="217.89">
			<stop offset="0" stop-color="#d0dbdc"  />
			<stop offset="1" stop-color="#5d88fe"  />
		</linearGradient>
		<linearGradient id="grd50" gradientUnits="userSpaceOnUse"  x1="12836.153" y1="2869.515" x2="12735.382" y2="2959.458">
			<stop offset="0.07" stop-color="#ffffd9"  />
			<stop offset="1" stop-color="#e132fe"  />
		</linearGradient>
		<linearGradient id="grd51" gradientUnits="userSpaceOnUse"  x1="1399.51" y1="296.17" x2="1367.1" y2="324.03">
			<stop offset="0" stop-color="#ffffff"  />
			<stop offset="0.3" stop-color="#fb337c"  />
			<stop offset="0.99" stop-color="#317ddd"  />
		</linearGradient>
		<linearGradient id="grd52" gradientUnits="userSpaceOnUse"  x1="1396.21" y1="299.71" x2="1368.71" y2="323.35">
			<stop offset="0" stop-color="#ffff39"  />
			<stop offset="0.35" stop-color="#fbbe33"  />
			<stop offset="0.82" stop-color="#744665"  />
			<stop offset="1" stop-color="#e132fe"  />
		</linearGradient>
		<linearGradient id="grd53" gradientUnits="userSpaceOnUse"  x1="1398.48" y1="296.97" x2="1381.18" y2="311.84">
			<stop offset="0" stop-color="#ffeec8"  />
			<stop offset="0.76" stop-color="#fda095"  />
		</linearGradient>
		<linearGradient id="grd54" gradientUnits="userSpaceOnUse"  x1="952.51" y1="206.4" x2="927.34" y2="228.05">
			<stop offset="0.07" stop-color="#ffffd9"  />
			<stop offset="1" stop-color="#756efe"  />
		</linearGradient>
		<linearGradient id="grd55" gradientUnits="userSpaceOnUse"  x1="22910.131" y1="5046.116" x2="22415.626" y2="5471.2">
			<stop offset="0" stop-color="#d0dbdc"  />
			<stop offset="1" stop-color="#5d88fe"  />
		</linearGradient>
		<linearGradient id="grd56" gradientUnits="userSpaceOnUse"  x1="951.71" y1="207.02" x2="938.27" y2="218.57">
			<stop offset="0" stop-color="#ffffff"  />
			<stop offset="0.76" stop-color="#fda095"  />
		</linearGradient>
		<linearGradient id="grd57" gradientUnits="userSpaceOnUse"  x1="1066.534" y1="379.892" x2="1078.012" y2="552.38">
			<stop offset="0.1" stop-color="#5cf8fb"  />
			<stop offset="0.49" stop-color="#361074"  />
			<stop offset="1" stop-color="#7f4086"  />
		</linearGradient>
		<linearGradient id="grd58" gradientUnits="userSpaceOnUse"  x1="94197.954" y1="35705.948" x2="88534.939" y2="48232.376">
			<stop offset="0.1" stop-color="#5cf8fb"  />
			<stop offset="0.49" stop-color="#361074"  />
			<stop offset="1" stop-color="#7f4086"  />
		</linearGradient>
		<linearGradient id="grd59" gradientUnits="userSpaceOnUse"  x1="85293.083" y1="24689.259" x2="81612.482" y2="30561.582">
			<stop offset="0.1" stop-color="#5cf8fb"  />
			<stop offset="0.49" stop-color="#361074"  />
			<stop offset="1" stop-color="#7f4086"  />
		</linearGradient>
		<linearGradient id="grd60" gradientUnits="userSpaceOnUse"  x1="99224.07" y1="42411.559" x2="92504.933" y2="58703.144">
			<stop offset="0.1" stop-color="#5cf8fb"  />
			<stop offset="0.49" stop-color="#361074"  />
			<stop offset="1" stop-color="#7f4086"  />
		</linearGradient>
		<linearGradient id="grd61" gradientUnits="userSpaceOnUse"  x1="28668.541" y1="32037.216" x2="27422.68" y2="39528.234">
			<stop offset="0.1" stop-color="#5cf8fb"  />
			<stop offset="0.49" stop-color="#361074"  />
			<stop offset="1" stop-color="#7f4086"  />
		</linearGradient>
		<linearGradient id="grd62" gradientUnits="userSpaceOnUse"  x1="1066.445" y1="382.368" x2="1075.534" y2="518.908">
			<stop offset="0.1" stop-color="#e6e4e6"  />
			<stop offset="0.7" stop-color="#d9d2e5"  />
		</linearGradient>
	</defs>
	<style>
		tspan { white-space:pre }
		.shp0 { fill: #f5f5f4 } 
		.shp1 { fill: #eaeae8 } 
		.shp2 { fill: #e3e3e0 } 
		.shp3 { fill: url(#grd1) } 
		.shp4 { fill: url(#grd2) } 
		.shp5 { fill: url(#grd3) } 
		.shp6 { fill: #baa5ca } 
		.shp7 { fill: url(#grd4) } 
		.shp8 { fill: #0061b0 } 
		.shp9 { fill: url(#grd5) } 
		.shp10 { fill: url(#grd6) } 
		.shp11 { fill: url(#grd7) } 
		.shp12 { fill: url(#grd8) } 
		.shp13 { fill: url(#grd9) } 
		.shp14 { fill: url(#grd10) } 
		.shp15 { fill: url(#grd11) } 
		.shp16 { fill: url(#grd12) } 
		.shp17 { fill: url(#grd13) } 
		.shp18 { fill: url(#grd14) } 
		.shp19 { fill: url(#grd15) } 
		.shp20 { fill: url(#grd16) } 
		.shp21 { fill: none;stroke: #604e54;stroke-linecap:round;stroke-linejoin:round;stroke-width: 1.62 } 
		.shp22 { fill: #604e54 } 
		.shp23 { fill: #bdbdb7 } 
		.shp24 { fill: url(#grd17) } 
		.shp25 { fill: #c6c6c1 } 
		.shp26 { fill: url(#grd18) } 
		.shp27 { opacity: 0.502;mix-blend-mode: multiply;fill: #c6c6c1 } 
		.shp28 { fill: #e2e2df } 
		.shp29 { fill: url(#grd19) } 
		.shp30 { fill: url(#grd20) } 
		.shp31 { fill: url(#grd21) } 
		.shp32 { fill: url(#grd22) } 
		.shp33 { fill: url(#grd23) } 
		.shp34 { fill: url(#grd24) } 
		.shp35 { opacity: 0.4;mix-blend-mode: multiply;fill: url(#grd25) } 
		.shp36 { fill: #c1364f } 
		.shp37 { fill: #ab0f44 } 
		.shp38 { opacity: 0.4;mix-blend-mode: multiply;fill: url(#grd26) } 
		.shp39 { opacity: 0.4;mix-blend-mode: multiply;fill: url(#grd27) } 
		.shp40 { opacity: 0.4;mix-blend-mode: multiply;fill: url(#grd28) } 
		.shp41 { opacity: 0.4;mix-blend-mode: multiply;fill: url(#grd29) } 
		.shp42 { opacity: 0.4;mix-blend-mode: multiply;fill: url(#grd30) } 
		.shp43 { opacity: 0.4;mix-blend-mode: multiply;fill: url(#grd31) } 
		.shp44 { opacity: 0.4;mix-blend-mode: multiply;fill: url(#grd32) } 
		.shp45 { fill: url(#grd33) } 
		.shp46 { fill: url(#grd34) } 
		.shp47 { mix-blend-mode: lighten;fill: url(#grd35) } 
		.shp48 { fill: url(#grd36) } 
		.shp49 { fill: url(#grd37) } 
		.shp50 { mix-blend-mode: lighten;fill: url(#grd38) } 
		.shp51 { fill: url(#grd39) } 
		.shp52 { opacity: 0.4;mix-blend-mode: multiply;fill: url(#grd40) } 
		.shp53 { opacity: 0.4;mix-blend-mode: multiply;fill: url(#grd41) } 
		.shp54 { opacity: 0.4;mix-blend-mode: multiply;fill: url(#grd42) } 
		.shp55 { opacity: 0.4;mix-blend-mode: multiply;fill: url(#grd43) } 
		.shp56 { opacity: 0.4;mix-blend-mode: multiply;fill: url(#grd44) } 
		.shp57 { opacity: 0.4;mix-blend-mode: multiply;fill: url(#grd45) } 
		.shp58 { opacity: 0.4;mix-blend-mode: multiply;fill: url(#grd46) } 
		.shp59 { mix-blend-mode: lighten;fill: url(#grd47) } 
		.shp60 { fill: #00e6fb } 
		.shp61 { fill: url(#grd48) } 
		.shp62 { opacity: 0.4;mix-blend-mode: multiply;fill: url(#grd49) } 
		.shp63 { mix-blend-mode: lighten;fill: url(#grd50) } 
		.shp64 { fill: url(#grd51) } 
		.shp65 { opacity: 0.4;mix-blend-mode: multiply;fill: url(#grd52) } 
		.shp66 { mix-blend-mode: lighten;fill: url(#grd53) } 
		.shp67 { fill: url(#grd54) } 
		.shp68 { opacity: 0.4;mix-blend-mode: multiply;fill: url(#grd55) } 
		.shp69 { mix-blend-mode: lighten;fill: url(#grd56) } 
		.shp70 { fill: url(#grd57) } 
		.shp71 { fill: url(#grd58) } 
		.shp72 { fill: url(#grd59) } 
		.shp73 { fill: url(#grd60) } 
		.shp74 { fill: url(#grd61) } 
		.shp75 { mix-blend-mode: lighten;fill: url(#grd62) } 
	</style>
	<g id="Layer">
		<g id="Layer_2">
			<g id="blogd">
				<path id="Layer" class="shp0" d="M834.87 1380.67C839.8 1386.54 844.79 1392.36 849.63 1398.32C873.86 1428.2 985.12 1543.32 1286.55 1582.45C1657.74 1630.69 1838.09 1479.69 2175.72 1414.69C2487.53 1354.69 2702.83 1403.03 2783.87 1423.07C3467.2 1592.1 3643 862 3643 862C3643 862 3365 945.66 3161.8 735C2991.74 558.68 2839.6 446.91 2796.69 412.93C2790.63 408.12 2784.63 403.23 2778.69 398.28C2752.23 376.28 2621.2 283.45 2312.03 300.11C2029.03 315.36 1926.17 528.7 1489.97 436.42C1091.36 352.1 844.07 371.42 844.07 371.42C844.07 371.42 651.49 382.37 448.27 427.2C245.05 472.03 0 636.35 0 636.35C0 636.35 174.94 636.88 394.26 792.41C646.61 971.36 665.49 1179 834.87 1380.67Z" />
				<path id="Layer" class="shp1" d="M804.93 1343.62C846.87 1408.62 970.55 1545.62 1272.53 1584.41C1535.53 1618.2 1744.37 1540.41 1744.37 1540.41C1744.37 1540.41 1572.37 1583.41 1452.88 1576.06C1333.39 1568.71 1335.44 1527.83 1236.88 1514.2C1138.32 1500.57 1061.77 1532.02 1004.1 1475.4C946.43 1418.78 953.77 1356.92 910.78 1340.14C910.78 1340.1 856.31 1318.46 804.93 1343.62Z" />
				<path id="Layer" class="shp1" d="M2787.32 1424.33C2787.32 1424.33 2583.21 1366.33 2369.32 1387.33C2155.43 1408.33 1990.8 1459.68 1990.8 1459.68C2062.1 1394.68 2175.34 1382.08 2300.12 1381.03C2429.48 1379.95 2422.93 1320.25 2522.83 1326.33C2524.31 1326.42 2525.83 1326.5 2527.27 1326.56C2541.71 1327.08 2646.63 1334.21 2787.32 1424.33Z" />
				<path id="Layer" class="shp2" d="M1131.46 1486.68C1131.15 1485.43 1130.78 1484.19 1130.36 1482.97C1129.95 1481.74 1129.48 1480.54 1128.97 1479.35C1128.45 1478.17 1127.89 1477.01 1127.28 1475.87C1126.67 1474.73 1126.02 1473.62 1125.32 1472.53C1125.3 1472.5 1125.28 1472.47 1125.27 1472.43C1125.25 1472.4 1125.25 1472.36 1125.25 1472.32C1125.25 1472.29 1125.25 1472.25 1125.27 1472.22C1125.28 1472.18 1125.3 1472.15 1125.32 1472.12C1129.04 1467.12 1130.98 1460.12 1131.85 1457.18C1131.88 1457.1 1131.93 1457.03 1132 1456.97C1132.07 1456.92 1132.15 1456.9 1132.24 1456.9C1132.33 1456.9 1132.41 1456.92 1132.48 1456.97C1132.55 1457.03 1132.6 1457.1 1132.63 1457.18C1133.36 1460.24 1135.27 1467.72 1137.48 1471.94C1137.49 1471.96 1137.5 1471.99 1137.5 1472.01C1137.51 1472.03 1137.51 1472.06 1137.51 1472.08C1137.51 1472.11 1137.51 1472.13 1137.5 1472.16C1137.5 1472.18 1137.49 1472.21 1137.48 1472.23C1136.98 1473.41 1136.49 1474.59 1136.01 1475.78C1135.54 1476.98 1135.09 1478.17 1134.65 1479.38C1134.21 1480.58 1133.78 1481.79 1133.38 1483.01C1132.97 1484.22 1132.58 1485.44 1132.21 1486.67C1132.18 1486.75 1132.13 1486.81 1132.07 1486.86C1132 1486.91 1131.92 1486.93 1131.84 1486.94C1131.76 1486.94 1131.68 1486.91 1131.61 1486.87C1131.54 1486.82 1131.49 1486.76 1131.46 1486.68Z" />
				<path id="Layer" class="shp2" d="M1088.57 1467C1086.63 1467 1085.07 1465.44 1085.07 1463.5C1085.07 1461.56 1086.63 1460 1088.57 1460C1090.51 1460 1092.07 1461.56 1092.07 1463.5C1092.07 1465.44 1090.51 1467 1088.57 1467Z" />
				<path id="Layer" class="shp2" d="M1067.16 1488.27C1065.22 1488.27 1063.66 1486.71 1063.66 1484.77C1063.66 1482.83 1065.22 1481.27 1067.16 1481.27C1069.1 1481.27 1070.66 1482.83 1070.66 1484.77C1070.66 1486.71 1069.1 1488.27 1067.16 1488.27Z" />
				<path id="Layer" class="shp2" d="M1057.22 1469.08C1055.67 1469.08 1054.42 1467.83 1054.42 1466.28C1054.42 1464.73 1055.67 1463.48 1057.22 1463.48C1058.77 1463.48 1060.02 1464.73 1060.02 1466.28C1060.02 1467.83 1058.77 1469.08 1057.22 1469.08Z" />
				<path id="Layer" class="shp2" d="M1162.52 1488.45C1160.97 1488.45 1159.72 1487.2 1159.72 1485.65C1159.72 1484.1 1160.97 1482.85 1162.52 1482.85C1164.07 1482.85 1165.32 1484.1 1165.32 1485.65C1165.32 1487.2 1164.07 1488.45 1162.52 1488.45Z" />
				<path id="Layer" class="shp2" d="M1074.39 1476.55C1072.07 1476.55 1070.2 1474.68 1070.2 1472.36C1070.2 1470.04 1072.07 1468.17 1074.39 1468.17C1076.71 1468.17 1078.58 1470.04 1078.58 1472.36C1078.58 1474.68 1076.71 1476.55 1074.39 1476.55Z" />
				<path id="Layer" class="shp2" d="M1116.89 1492.11L1111.38 1490.63L1107.16 1494.48L1106.71 1488.61L1101.8 1485.58L1107.04 1483.43L1108.22 1477.7L1111.9 1482.24L1117.54 1481.74L1114.58 1486.69L1116.89 1492.11L1116.89 1492.11Z" />
				<path id="Layer" class="shp1" d="M2787.32 509.87C2785.99 509.27 2784.65 508.68 2783.32 508.1C2775.62 504.77 2733.03 484.16 2700.65 423.67C2660.81 349.23 2620.96 349.23 2569.59 355.52C2520.59 361.52 2501.43 389.07 2434.32 385.93C2360.89 382.48 2330.52 340.84 2249.78 340.84C2140.69 340.84 2045.31 370.2 2045.31 370.2C2045.31 370.2 2234.4 283 2450 300C2796 327.26 2951.21 535.92 2951.21 535.92C2951.21 535.92 2873.26 548.18 2787.32 509.87Z" />
				<path id="Layer" class="shp2" d="M2541.27 316.72C2455.75 306.36 2433.27 330.35 2355.67 337.72C2278.07 345.09 2261.44 322.78 2193.15 334.58C2077.81 354.5 1990.78 394.35 1990.78 394.35C1990.78 394.35 2169 284.22 2440.61 291.56C2680.61 298.05 2800.26 408.99 2800.26 408.99C2800.26 408.99 2754.12 401.65 2690.16 374.39C2626.2 347.13 2610.47 325.11 2541.27 316.72Z" />
			</g>
			<g id="planets">
				<path id="Layer" class="shp3" d="M862.33 158.9C954.22 189.2 1025.51 175.9 1180.19 136.8C1334.87 97.7 1435.19 150.4 1496.36 228.59C1557.53 306.78 1625.55 375.59 1727.54 378.18C1829.53 380.77 1863.54 350.13 1966.36 360.33C2069.18 370.53 2107.45 437.67 2107.45 437.67C2107.45 437.67 2039.45 385.82 1954.45 413.87C1869.45 441.92 1790.45 519.26 1640.83 517.56C1491.21 515.86 1450.47 442.77 1306 439.37C1161.53 435.97 1121.57 479.31 1019.58 490.37C930.32 500 874.27 464.15 861.65 455C859.65 453.54 857.65 452.09 855.55 450.69C826.75 431 624.33 281.7 656.26 0C656.26 0 689.4 101.87 862.33 158.9Z" />
				<path id="Layer" class="shp4" d="M808.45 209.87C808.45 209.87 905.11 276.8 997.75 274.77C1100.87 272.5 1146.2 192.89 1187.84 164C1229.48 135.11 1268.59 134.25 1296.63 147C1324.67 159.75 1342.53 176.75 1388.42 180.15C1434.31 183.55 1466.62 201.39 1487.01 237.94C1507.4 274.49 1507.69 318.94 1555.29 371.09C1610.08 431.09 1733.49 413.87 1784.48 396.87C1835.47 379.87 1883.92 361.18 1942.57 366.28C2001.22 371.38 2025.86 394.28 2025.86 394.28C2025.86 394.28 1986.76 378.14 1930.67 399.38C1874.58 420.62 1823.34 471.38 1716.21 496.84C1625.55 518.37 1500.61 484.37 1414.77 427.43C1328.93 370.49 1279.63 347.54 1209.94 364.54C1140.25 381.54 1033.05 519.15 858.08 430C858.08 430 668.53 324 667.31 54C667.31 54 699.22 138.69 808.45 209.87Z" />
				<path id="Layer" class="shp5" d="M739.88 186.43C792.7 252.12 865.46 299.09 947.32 319.19L952.04 320.33C1044.9 342.33 1120.13 298.57 1147.33 250.97C1173.81 204.63 1205.22 158.42 1237.99 151.25C1274.25 143.32 1285.28 197.25 1339.99 216.97C1403.73 239.92 1441.69 207.34 1478.24 249.84C1514.79 292.34 1491.84 367.98 1532.64 416.42C1573.44 464.86 1689.3 452.12 1750.5 424.07C1811.7 396.02 1787.89 445.32 1745.4 469.97C1702.91 494.62 1600.06 500.56 1516.77 460.62C1433.48 420.68 1406.85 333.7 1303.77 317.83C1218.95 304.78 1188.22 355.76 1115.66 394.89C1002.36 456 886.88 425.93 828 367C825.74 364.74 823.5 362.48 821.22 360.25C804.08 343.42 722.4 257.79 690.63 125.25L739.88 186.43Z" />
				<path id="Layer" class="shp6" d="M1527.85 318C1527.66 317.32 1527.44 316.66 1527.2 316C1526.95 315.34 1526.67 314.69 1526.37 314.06C1526.06 313.43 1525.73 312.81 1525.37 312.2C1525.01 311.6 1524.63 311.01 1524.22 310.44C1524.21 310.42 1524.2 310.41 1524.19 310.39C1524.18 310.37 1524.18 310.35 1524.18 310.33C1524.18 310.31 1524.18 310.29 1524.19 310.27C1524.2 310.25 1524.21 310.24 1524.22 310.22C1526.42 307.55 1527.56 303.8 1528.07 302.22C1528.09 302.17 1528.12 302.14 1528.16 302.11C1528.2 302.08 1528.25 302.07 1528.3 302.07C1528.35 302.07 1528.4 302.08 1528.44 302.11C1528.48 302.14 1528.51 302.17 1528.53 302.22C1528.7 302.9 1528.88 303.58 1529.08 304.25C1529.28 304.92 1529.5 305.58 1529.74 306.24C1529.98 306.9 1530.24 307.55 1530.51 308.2C1530.79 308.84 1531.08 309.48 1531.39 310.11C1531.4 310.12 1531.4 310.14 1531.4 310.15C1531.41 310.16 1531.41 310.18 1531.41 310.19C1531.41 310.2 1531.41 310.22 1531.4 310.23C1531.4 310.24 1531.4 310.26 1531.39 310.27C1531.09 310.9 1530.8 311.53 1530.52 312.16C1530.24 312.8 1529.98 313.44 1529.72 314.08C1529.46 314.73 1529.21 315.37 1528.97 316.02C1528.73 316.68 1528.5 317.33 1528.28 317.99C1528.26 318.03 1528.23 318.06 1528.19 318.09C1528.16 318.11 1528.11 318.13 1528.07 318.13C1528.02 318.13 1527.98 318.12 1527.94 318.1C1527.9 318.07 1527.87 318.04 1527.85 318Z" />
				<path id="Layer" class="shp7" d="M1934.09 355.05C1933.9 354.37 1933.68 353.7 1933.43 353.05C1933.19 352.39 1932.91 351.74 1932.61 351.11C1932.3 350.47 1931.97 349.85 1931.61 349.25C1931.25 348.64 1930.87 348.05 1930.46 347.48C1930.45 347.46 1930.44 347.45 1930.43 347.43C1930.43 347.41 1930.42 347.39 1930.42 347.37C1930.42 347.35 1930.43 347.33 1930.43 347.31C1930.44 347.29 1930.45 347.28 1930.46 347.26C1932.66 344.59 1933.8 340.85 1934.31 339.26C1934.33 339.21 1934.36 339.18 1934.4 339.15C1934.44 339.12 1934.49 339.11 1934.54 339.11C1934.59 339.11 1934.64 339.12 1934.68 339.15C1934.72 339.18 1934.75 339.21 1934.77 339.26C1934.94 339.94 1935.12 340.62 1935.32 341.29C1935.53 341.96 1935.75 342.62 1935.99 343.28C1936.22 343.94 1936.48 344.59 1936.76 345.24C1937.03 345.88 1937.32 346.52 1937.63 347.15C1937.64 347.16 1937.64 347.17 1937.64 347.19C1937.65 347.2 1937.65 347.21 1937.65 347.22C1937.65 347.24 1937.65 347.25 1937.64 347.26C1937.64 347.28 1937.64 347.29 1937.63 347.3C1937.33 347.93 1937.05 348.56 1936.77 349.19C1936.49 349.83 1936.22 350.47 1935.96 351.11C1935.7 351.76 1935.45 352.41 1935.21 353.06C1934.97 353.71 1934.74 354.36 1934.52 355.02C1934.5 355.06 1934.47 355.1 1934.44 355.12C1934.4 355.15 1934.36 355.17 1934.31 355.17C1934.27 355.17 1934.22 355.16 1934.19 355.14C1934.15 355.12 1934.11 355.09 1934.09 355.05L1934.09 355.05Z" />
				<path id="Layer" class="shp6" d="M1885 384.72C1884.81 384.04 1884.59 383.38 1884.34 382.72C1884.09 382.06 1883.82 381.41 1883.52 380.78C1883.21 380.15 1882.88 379.52 1882.53 378.92C1882.17 378.31 1881.79 377.72 1881.38 377.15C1881.37 377.13 1881.36 377.12 1881.35 377.1C1881.34 377.08 1881.34 377.06 1881.34 377.04C1881.34 377.02 1881.34 377 1881.35 376.98C1881.36 376.96 1881.37 376.95 1881.38 376.93C1883.58 374.26 1884.72 370.52 1885.23 368.93C1885.25 368.88 1885.28 368.85 1885.32 368.82C1885.36 368.79 1885.41 368.78 1885.46 368.78C1885.51 368.78 1885.56 368.79 1885.6 368.82C1885.64 368.85 1885.67 368.88 1885.69 368.93C1885.86 369.61 1886.04 370.29 1886.24 370.96C1886.45 371.63 1886.67 372.29 1886.91 372.95C1887.14 373.61 1887.4 374.26 1887.68 374.91C1887.95 375.55 1888.24 376.19 1888.55 376.82C1888.56 376.83 1888.56 376.84 1888.56 376.86C1888.57 376.87 1888.57 376.88 1888.57 376.89C1888.57 376.91 1888.57 376.92 1888.56 376.93C1888.56 376.95 1888.56 376.96 1888.55 376.97C1888.25 377.6 1887.96 378.23 1887.69 378.86C1887.41 379.5 1887.14 380.14 1886.88 380.78C1886.62 381.43 1886.37 382.07 1886.13 382.73C1885.89 383.38 1885.66 384.03 1885.44 384.69C1885.42 384.73 1885.4 384.77 1885.36 384.8C1885.32 384.83 1885.28 384.85 1885.23 384.85C1885.18 384.85 1885.14 384.84 1885.1 384.82C1885.05 384.8 1885.02 384.76 1885 384.72L1885 384.72Z" />
				<path id="Layer" class="shp8" d="M1181.33 340.5C1180.07 340.5 1179.06 339.49 1179.06 338.23C1179.06 336.97 1180.07 335.96 1181.33 335.96C1182.59 335.96 1183.6 336.97 1183.6 338.23C1183.6 339.49 1182.59 340.5 1181.33 340.5Z" />
				<path id="Layer" class="shp8" d="M1200.59 328.03C1199.96 328.03 1199.46 327.52 1199.46 326.9C1199.46 326.28 1199.96 325.77 1200.59 325.77C1201.21 325.77 1201.72 326.28 1201.72 326.9C1201.72 327.52 1201.21 328.03 1200.59 328.03Z" />
				<path id="Layer" class="shp8" d="M938.25 379.02C937.62 379.02 937.12 378.51 937.12 377.89C937.12 377.27 937.62 376.76 938.25 376.76C938.87 376.76 939.38 377.27 939.38 377.89C939.38 378.51 938.87 379.02 938.25 379.02Z" />
				<path id="Layer" class="shp8" d="M1239.12 317.83C1237.55 317.83 1236.29 316.56 1236.29 315C1236.29 313.43 1237.55 312.17 1239.12 312.17C1240.68 312.17 1241.95 313.43 1241.95 315C1241.95 316.56 1240.68 317.83 1239.12 317.83Z" />
				<path id="Layer" class="shp8" d="M945.62 292.33C944.05 292.33 942.79 291.06 942.79 289.5C942.79 287.93 944.05 286.67 945.62 286.67C947.18 286.67 948.45 287.93 948.45 289.5C948.45 291.06 947.18 292.33 945.62 292.33Z" />
				<path id="Layer" class="shp8" d="M1240.25 291.77C1238.99 291.77 1237.98 290.76 1237.98 289.5C1237.98 288.24 1238.99 287.23 1240.25 287.23C1241.51 287.23 1242.52 288.24 1242.52 289.5C1242.52 290.76 1241.51 291.77 1240.25 291.77Z" />
				<path id="Layer" class="shp8" d="M895.19 365.43C893.93 365.43 892.92 364.42 892.92 363.16C892.92 361.9 893.93 360.89 895.19 360.89C896.45 360.89 897.46 361.9 897.46 363.16C897.46 364.42 896.45 365.43 895.19 365.43Z" />
				<path id="Layer" class="shp8" d="M1128.07 355.23C1126.81 355.23 1125.8 354.22 1125.8 352.96C1125.8 351.7 1126.81 350.69 1128.07 350.69C1129.33 350.69 1130.34 351.7 1130.34 352.96C1130.34 354.22 1129.33 355.23 1128.07 355.23Z" />
				<path id="Layer" class="shp8" d="M1090.67 293.47C1089.41 293.47 1088.4 292.46 1088.4 291.2C1088.4 289.94 1089.41 288.93 1090.67 288.93C1091.93 288.93 1092.94 289.94 1092.94 291.2C1092.94 292.46 1091.93 293.47 1090.67 293.47Z" />
				<path id="Layer" class="shp8" d="M950.72 341.07C949.46 341.07 948.45 340.06 948.45 338.8C948.45 337.54 949.46 336.53 950.72 336.53C951.98 336.53 952.99 337.54 952.99 338.8C952.99 340.06 951.98 341.07 950.72 341.07Z" />
				<path id="Layer" class="shp8" d="M1028.34 353.53C1026.46 353.53 1024.94 352.01 1024.94 350.13C1024.94 348.25 1026.46 346.73 1028.34 346.73C1030.22 346.73 1031.74 348.25 1031.74 350.13C1031.74 352.01 1030.22 353.53 1028.34 353.53Z" />
				<path id="Layer" class="shp8" d="M797.03 311.43C796.02 311.43 795.21 310.62 795.21 309.61C795.21 308.6 796.02 307.79 797.03 307.79C798.04 307.79 798.85 308.6 798.85 309.61C798.85 310.62 798.04 311.43 797.03 311.43Z" />
				<path id="Layer" class="shp8" d="M812.19 320.08C811.69 320.08 811.28 319.67 811.28 319.17C811.28 318.67 811.69 318.26 812.19 318.26C812.69 318.26 813.1 318.67 813.1 319.17C813.1 319.67 812.69 320.08 812.19 320.08Z" />
				<path id="Layer" class="shp8" d="M679.42 151.84C678.92 151.84 678.51 151.43 678.51 150.93C678.51 150.43 678.92 150.02 679.42 150.02C679.92 150.02 680.33 150.43 680.33 150.93C680.33 151.43 679.92 151.84 679.42 151.84Z" />
				<path id="Layer" class="shp8" d="M834.83 344.53C833.57 344.53 832.56 343.52 832.56 342.26C832.56 341 833.57 339.99 834.83 339.99C836.09 339.99 837.1 341 837.1 342.26C837.1 343.52 836.09 344.53 834.83 344.53Z" />
				<path id="Layer" class="shp8" d="M745.13 125.96C743.87 125.96 742.86 124.95 742.86 123.69C742.86 122.43 743.87 121.42 745.13 121.42C746.39 121.42 747.4 122.43 747.4 123.69C747.4 124.95 746.39 125.96 745.13 125.96Z" />
				<path id="Layer" class="shp8" d="M853.42 335.52C852.41 335.52 851.6 334.71 851.6 333.7C851.6 332.69 852.41 331.88 853.42 331.88C854.43 331.88 855.24 332.69 855.24 333.7C855.24 334.71 854.43 335.52 853.42 335.52Z" />
				<path id="Layer" class="shp8" d="M674.1 116.64C673.09 116.64 672.28 115.83 672.28 114.82C672.28 113.81 673.09 113 674.1 113C675.11 113 675.92 113.81 675.92 114.82C675.92 115.83 675.11 116.64 674.1 116.64Z" />
				<path id="Layer" class="shp8" d="M766.96 278.88C765.95 278.88 765.14 278.07 765.14 277.06C765.14 276.05 765.95 275.24 766.96 275.24C767.97 275.24 768.78 276.05 768.78 277.06C768.78 278.07 767.97 278.88 766.96 278.88Z" />
				<path id="Layer" class="shp8" d="M797.23 229.53C796.22 229.53 795.41 228.72 795.41 227.71C795.41 226.7 796.22 225.89 797.23 225.89C798.24 225.89 799.05 226.7 799.05 227.71C799.05 228.72 798.24 229.53 797.23 229.53Z" />
				<path id="Layer" class="shp8" d="M711.87 147.26C710.86 147.26 710.05 146.45 710.05 145.44C710.05 144.43 710.86 143.62 711.87 143.62C712.88 143.62 713.69 144.43 713.69 145.44C713.69 146.45 712.88 147.26 711.87 147.26Z" />
				<path id="Layer" class="shp8" d="M732.32 207.67C730.81 207.67 729.59 206.45 729.59 204.94C729.59 203.43 730.81 202.21 732.32 202.21C733.83 202.21 735.05 203.43 735.05 204.94C735.05 206.45 733.83 207.67 732.32 207.67Z" />
				<path id="Layer" class="shp6" d="M1457.15 398.34C1456.05 398.34 1455.16 397.45 1455.16 396.35C1455.16 395.25 1456.05 394.36 1457.15 394.36C1458.25 394.36 1459.14 395.25 1459.14 396.35C1459.14 397.45 1458.25 398.34 1457.15 398.34Z" />
				<path id="Layer" class="shp6" d="M1475.01 389.25C1474.46 389.25 1474.02 388.81 1474.02 388.26C1474.02 387.71 1474.46 387.27 1475.01 387.27C1475.56 387.27 1476 387.71 1476 388.26C1476 388.81 1475.56 389.25 1475.01 389.25Z" />
				<path id="Layer" class="shp6" d="M1241.41 409.31C1240.86 409.31 1240.42 408.87 1240.42 408.32C1240.42 407.77 1240.86 407.33 1241.41 407.33C1241.96 407.33 1242.4 407.77 1242.4 408.32C1242.4 408.87 1241.96 409.31 1241.41 409.31Z" />
				<path id="Layer" class="shp6" d="M1509.73 383.96C1508.35 383.96 1507.24 382.85 1507.24 381.47C1507.24 380.09 1508.35 378.98 1509.73 378.98C1511.11 378.98 1512.22 380.09 1512.22 381.47C1512.22 382.85 1511.11 383.96 1509.73 383.96Z" />
				<path id="Layer" class="shp6" d="M1256.06 334.39C1254.68 334.39 1253.57 333.28 1253.57 331.9C1253.57 330.52 1254.68 329.41 1256.06 329.41C1257.44 329.41 1258.55 330.52 1258.55 331.9C1258.55 333.28 1257.44 334.39 1256.06 334.39Z" />
				<path id="Layer" class="shp6" d="M1513.09 361.32C1511.99 361.32 1511.1 360.43 1511.1 359.33C1511.1 358.23 1511.99 357.34 1513.09 357.34C1514.19 357.34 1515.08 358.23 1515.08 359.33C1515.08 360.43 1514.19 361.32 1513.09 361.32Z" />
				<path id="Layer" class="shp6" d="M1205.22 393.45C1204.12 393.45 1203.23 392.56 1203.23 391.46C1203.23 390.36 1204.12 389.47 1205.22 389.47C1206.32 389.47 1207.21 390.36 1207.21 391.46C1207.21 392.56 1206.32 393.45 1205.22 393.45Z" />
				<path id="Layer" class="shp6" d="M1409.32 406.24C1408.22 406.24 1407.33 405.35 1407.33 404.25C1407.33 403.15 1408.22 402.26 1409.32 402.26C1410.42 402.26 1411.31 403.15 1411.31 404.25C1411.31 405.35 1410.42 406.24 1409.32 406.24Z" />
				<path id="Layer" class="shp6" d="M1382.44 348.88C1381.34 348.88 1380.45 347.99 1380.45 346.89C1380.45 345.79 1381.34 344.9 1382.44 344.9C1383.54 344.9 1384.43 345.79 1384.43 346.89C1384.43 347.99 1383.54 348.88 1382.44 348.88Z" />
				<path id="Layer" class="shp6" d="M1255.92 377.37C1254.82 377.37 1253.93 376.48 1253.93 375.38C1253.93 374.28 1254.82 373.39 1255.92 373.39C1257.02 373.39 1257.91 374.28 1257.91 375.38C1257.91 376.48 1257.02 377.37 1255.92 377.37Z" />
				<path id="Layer" class="shp6" d="M1322.59 395.47C1320.94 395.47 1319.61 394.14 1319.61 392.49C1319.61 390.84 1320.94 389.51 1322.59 389.51C1324.24 389.51 1325.57 390.84 1325.57 392.49C1325.57 394.14 1324.24 395.47 1322.59 395.47Z" />
				<path id="Layer" class="shp6" d="M789.91 182.48C788.81 182.48 787.92 181.59 787.92 180.49C787.92 179.39 788.81 178.5 789.91 178.5C791.01 178.5 791.9 179.39 791.9 180.49C791.9 181.59 791.01 182.48 789.91 182.48Z" />
				<path id="Layer" class="shp6" d="M773.13 171.32C772.58 171.32 772.14 170.88 772.14 170.33C772.14 169.78 772.58 169.34 773.13 169.34C773.68 169.34 774.12 169.78 774.12 170.33C774.12 170.88 773.68 171.32 773.13 171.32Z" />
				<path id="Layer" class="shp6" d="M921.75 352.66C921.2 352.66 920.76 352.22 920.76 351.67C920.76 351.12 921.2 350.68 921.75 350.68C922.3 350.68 922.74 351.12 922.74 351.67C922.74 352.22 922.3 352.66 921.75 352.66Z" />
				<path id="Layer" class="shp6" d="M747.9 148.03C746.52 148.03 745.41 146.92 745.41 145.54C745.41 144.16 746.52 143.05 747.9 143.05C749.28 143.05 750.39 144.16 750.39 145.54C750.39 146.92 749.28 148.03 747.9 148.03Z" />
				<path id="Layer" class="shp6" d="M850.43 385.28C849.05 385.28 847.94 384.17 847.94 382.79C847.94 381.41 849.05 380.3 850.43 380.3C851.81 380.3 852.92 381.41 852.92 382.79C852.92 384.17 851.81 385.28 850.43 385.28Z" />
				<path id="Layer" class="shp6" d="M727.74 157.27C726.64 157.27 725.75 156.38 725.75 155.28C725.75 154.18 726.64 153.29 727.74 153.29C728.84 153.29 729.73 154.18 729.73 155.28C729.73 156.38 728.84 157.27 727.74 157.27Z" />
				<path id="Layer" class="shp6" d="M928.3 393.05C927.2 393.05 926.31 392.16 926.31 391.06C926.31 389.96 927.2 389.07 928.3 389.07C929.4 389.07 930.29 389.96 930.29 391.06C930.29 392.16 929.4 393.05 928.3 393.05Z" />
				<path id="Layer" class="shp6" d="M823.46 217.47C822.36 217.47 821.47 216.58 821.47 215.48C821.47 214.38 822.36 213.49 823.46 213.49C824.56 213.49 825.45 214.38 825.45 215.48C825.45 216.58 824.56 217.47 823.46 217.47Z" />
				<path id="Layer" class="shp6" d="M791.34 272.07C790.24 272.07 789.35 271.18 789.35 270.08C789.35 268.98 790.24 268.09 791.34 268.09C792.44 268.09 793.33 268.98 793.33 270.08C793.33 271.18 792.44 272.07 791.34 272.07Z" />
				<path id="Layer" class="shp6" d="M886.37 360.32C885.27 360.32 884.38 359.43 884.38 358.33C884.38 357.23 885.27 356.34 886.37 356.34C887.47 356.34 888.36 357.23 888.36 358.33C888.36 359.43 887.47 360.32 886.37 360.32Z" />
				<path id="Layer" class="shp6" d="M862.8 296.65C861.15 296.65 859.82 295.32 859.82 293.67C859.82 292.02 861.15 290.69 862.8 290.69C864.45 290.69 865.78 292.02 865.78 293.67C865.78 295.32 864.45 296.65 862.8 296.65Z" />
				<path id="Layer" class="shp9" d="M1801.75 426.74C1801.2 426.74 1800.76 426.3 1800.76 425.75C1800.76 425.2 1801.2 424.76 1801.75 424.76C1802.3 424.76 1802.74 425.2 1802.74 425.75C1802.74 426.3 1802.3 426.74 1801.75 426.74Z" />
				<path id="Layer" class="shp10" d="M1969.91 352.4C1968.81 352.4 1967.92 351.51 1967.92 350.41C1967.92 349.31 1968.81 348.42 1969.91 348.42C1971.01 348.42 1971.9 349.31 1971.9 350.41C1971.9 351.51 1971.01 352.4 1969.91 352.4Z" />
				<path id="Layer" class="shp11" d="M1765.56 410.88C1764.46 410.88 1763.57 409.99 1763.57 408.89C1763.57 407.79 1764.46 406.9 1765.56 406.9C1766.66 406.9 1767.55 407.79 1767.55 408.89C1767.55 409.99 1766.66 410.88 1765.56 410.88Z" />
				<path id="Layer" class="shp12" d="M1961.31 341.41C1960.21 341.41 1959.32 340.52 1959.32 339.42C1959.32 338.32 1960.21 337.43 1961.31 337.43C1962.41 337.43 1963.3 338.32 1963.3 339.42C1963.3 340.52 1962.41 341.41 1961.31 341.41Z" />
				<path id="Layer" class="shp13" d="M1816.27 394.79C1815.17 394.79 1814.28 393.9 1814.28 392.8C1814.28 391.7 1815.17 390.81 1816.27 390.81C1817.37 390.81 1818.26 391.7 1818.26 392.8C1818.26 393.9 1817.37 394.79 1816.27 394.79Z" />
				<path id="Layer" class="shp14" d="M1882.93 412.9C1881.28 412.9 1879.95 411.57 1879.95 409.92C1879.95 408.27 1881.28 406.94 1882.93 406.94C1884.58 406.94 1885.91 408.27 1885.91 409.92C1885.91 411.57 1884.58 412.9 1882.93 412.9Z" />
				<path id="Layer" class="shp8" d="M1140.16 180.36C1138.9 180.36 1137.89 179.35 1137.89 178.09C1137.89 176.83 1138.9 175.82 1140.16 175.82C1141.42 175.82 1142.43 176.83 1142.43 178.09C1142.43 179.35 1141.42 180.36 1140.16 180.36Z" />
				<path id="Layer" class="shp8" d="M1119.85 188.54C1119.22 188.54 1118.72 188.03 1118.72 187.41C1118.72 186.79 1119.22 186.28 1119.85 186.28C1120.47 186.28 1120.98 186.79 1120.98 187.41C1120.98 188.03 1120.47 188.54 1119.85 188.54Z" />
				<path id="Layer" class="shp8" d="M1386 164.36C1385.38 164.36 1384.87 163.85 1384.87 163.23C1384.87 162.61 1385.38 162.1 1386 162.1C1386.62 162.1 1387.13 162.61 1387.13 163.23C1387.13 163.85 1386.62 164.36 1386 164.36Z" />
				<path id="Layer" class="shp8" d="M1080.31 198.18C1078.74 198.18 1077.48 196.91 1077.48 195.35C1077.48 193.79 1078.74 192.52 1080.31 192.52C1081.87 192.52 1083.14 193.79 1083.14 195.35C1083.14 196.91 1081.87 198.18 1080.31 198.18Z" />
				<path id="Layer" class="shp8" d="M1369.73 253.25C1368.16 253.25 1366.9 251.98 1366.9 250.42C1366.9 248.85 1368.16 247.59 1369.73 247.59C1371.29 247.59 1372.56 248.85 1372.56 250.42C1372.56 251.98 1371.29 253.25 1369.73 253.25Z" />
				<path id="Layer" class="shp8" d="M1076.6 222.87C1075.34 222.87 1074.33 221.86 1074.33 220.6C1074.33 219.34 1075.34 218.33 1076.6 218.33C1077.86 218.33 1078.87 219.34 1078.87 220.6C1078.87 221.86 1077.86 222.87 1076.6 222.87Z" />
				<path id="Layer" class="shp8" d="M1427.35 184.51C1426.09 184.51 1425.08 183.5 1425.08 182.24C1425.08 180.98 1426.09 179.97 1427.35 179.97C1428.61 179.97 1429.62 180.98 1429.62 182.24C1429.62 183.5 1428.61 184.51 1427.35 184.51Z" />
				<path id="Layer" class="shp8" d="M1194.64 171.09C1193.38 171.09 1192.37 170.08 1192.37 168.82C1192.37 167.56 1193.38 166.55 1194.64 166.55C1195.9 166.55 1196.91 167.56 1196.91 168.82C1196.91 170.08 1195.9 171.09 1194.64 171.09Z" />
				<path id="Layer" class="shp8" d="M1225.59 236.32C1224.33 236.32 1223.32 235.31 1223.32 234.05C1223.32 232.79 1224.33 231.78 1225.59 231.78C1226.85 231.78 1227.86 232.79 1227.86 234.05C1227.86 235.31 1226.85 236.32 1225.59 236.32Z" />
				<path id="Layer" class="shp8" d="M1369.64 203.13C1368.38 203.13 1367.37 202.12 1367.37 200.86C1367.37 199.6 1368.38 198.59 1369.64 198.59C1370.9 198.59 1371.91 199.6 1371.91 200.86C1371.91 202.12 1370.9 203.13 1369.64 203.13Z" />
				<path id="Layer" class="shp8" d="M1293.56 185.13C1291.68 185.13 1290.16 183.61 1290.16 181.73C1290.16 179.85 1291.68 178.33 1293.56 178.33C1295.44 178.33 1296.96 179.85 1296.96 181.73C1296.96 183.61 1295.44 185.13 1293.56 185.13Z" />
				<path id="Layer" class="shp8" d="M1331.96 360.96C1330.7 360.96 1329.69 359.95 1329.69 358.69C1329.69 357.43 1330.7 356.42 1331.96 356.42C1333.22 356.42 1334.23 357.43 1334.23 358.69C1334.23 359.95 1333.22 360.96 1331.96 360.96Z" />
				<path id="Layer" class="shp8" d="M1310.6 366.39C1309.98 366.39 1309.47 365.88 1309.47 365.26C1309.47 364.64 1309.98 364.13 1310.6 364.13C1311.22 364.13 1311.73 364.64 1311.73 365.26C1311.73 365.88 1311.22 366.39 1310.6 366.39Z" />
				<path id="Layer" class="shp8" d="M1577.62 377.48C1577 377.48 1576.49 376.97 1576.49 376.35C1576.49 375.73 1577 375.22 1577.62 375.22C1578.24 375.22 1578.75 375.73 1578.75 376.35C1578.75 376.97 1578.24 377.48 1577.62 377.48Z" />
				<path id="Layer" class="shp8" d="M1270.36 370.75C1268.79 370.75 1267.53 369.48 1267.53 367.92C1267.53 366.35 1268.79 365.09 1270.36 365.09C1271.92 365.09 1273.19 366.35 1273.19 367.92C1273.19 369.48 1271.92 370.75 1270.36 370.75Z" />
				<path id="Layer" class="shp8" d="M1550 463.47C1548.43 463.47 1547.17 462.2 1547.17 460.64C1547.17 459.08 1548.43 457.81 1550 457.81C1551.56 457.81 1552.83 459.08 1552.83 460.64C1552.83 462.2 1551.56 463.47 1550 463.47Z" />
				<path id="Layer" class="shp8" d="M1263.36 394.73C1262.1 394.73 1261.09 393.72 1261.09 392.46C1261.09 391.2 1262.1 390.19 1263.36 390.19C1264.62 390.19 1265.63 391.2 1265.63 392.46C1265.63 393.72 1264.62 394.73 1263.36 394.73Z" />
				<path id="Layer" class="shp8" d="M1616.1 402.92C1614.84 402.92 1613.83 401.91 1613.83 400.65C1613.83 399.39 1614.84 398.38 1616.1 398.38C1617.36 398.38 1618.37 399.39 1618.37 400.65C1618.37 401.91 1617.36 402.92 1616.1 402.92Z" />
				<path id="Layer" class="shp8" d="M1387.19 358.95C1385.93 358.95 1384.92 357.94 1384.92 356.68C1384.92 355.42 1385.93 354.41 1387.19 354.41C1388.45 354.41 1389.46 355.42 1389.46 356.68C1389.46 357.94 1388.45 358.95 1387.19 358.95Z" />
				<path id="Layer" class="shp8" d="M1409.28 427.69C1408.02 427.69 1407.01 426.68 1407.01 425.42C1407.01 424.16 1408.02 423.15 1409.28 423.15C1410.54 423.15 1411.55 424.16 1411.55 425.42C1411.55 426.68 1410.54 427.69 1409.28 427.69Z" />
				<path id="Layer" class="shp8" d="M1556.45 413.78C1555.19 413.78 1554.18 412.77 1554.18 411.51C1554.18 410.25 1555.19 409.24 1556.45 409.24C1557.71 409.24 1558.72 410.25 1558.72 411.51C1558.72 412.77 1557.71 413.78 1556.45 413.78Z" />
				<path id="Layer" class="shp8" d="M1483.55 385.92C1481.67 385.92 1480.15 384.4 1480.15 382.52C1480.15 380.64 1481.67 379.12 1483.55 379.12C1485.43 379.12 1486.95 380.64 1486.95 382.52C1486.95 384.4 1485.43 385.92 1483.55 385.92Z" />
				<path id="Layer" class="shp15" d="M1876.78 348.43C1875.89 348.43 1875.17 347.71 1875.17 346.82C1875.17 345.93 1875.89 345.21 1876.78 345.21C1877.67 345.21 1878.39 345.93 1878.39 346.82C1878.39 347.71 1877.67 348.43 1876.78 348.43Z" />
				<path id="Layer" class="shp16" d="M1947.72 333.82C1947.28 333.82 1946.92 333.46 1946.92 333.02C1946.92 332.58 1947.28 332.22 1947.72 332.22C1948.16 332.22 1948.52 332.58 1948.52 333.02C1948.52 333.46 1948.16 333.82 1947.72 333.82Z" />
				<path id="Layer" class="shp17" d="M1828.06 372.41C1827.17 372.41 1826.45 371.69 1826.45 370.8C1826.45 369.91 1827.17 369.19 1828.06 369.19C1828.95 369.19 1829.67 369.91 1829.67 370.8C1829.67 371.69 1828.95 372.41 1828.06 372.41Z" />
				<path id="Layer" class="shp18" d="M1975.05 351.89C1974.16 351.89 1973.44 351.17 1973.44 350.28C1973.44 349.39 1974.16 348.67 1975.05 348.67C1975.94 348.67 1976.66 349.39 1976.66 350.28C1976.66 351.17 1975.94 351.89 1975.05 351.89Z" />
				<path id="Layer" class="shp19" d="M1916 347.01C1915.11 347.01 1914.39 346.29 1914.39 345.4C1914.39 344.51 1915.11 343.79 1916 343.79C1916.89 343.79 1917.61 344.51 1917.61 345.4C1917.61 346.29 1916.89 347.01 1916 347.01Z" />
				<path id="Layer" class="shp6" d="M1434.87 293.48L1432.52 292.12L1430.07 293.29L1430.63 290.63L1428.77 288.66L1431.47 288.38L1432.77 286L1433.87 288.48L1436.54 288.98L1434.52 290.79L1434.87 293.48L1434.87 293.48Z" />
				<path id="Layer" class="shp6" d="M1450.27 456.09L1447.92 454.73L1445.47 455.9L1446.04 453.25L1444.18 451.27L1446.87 450.99L1448.17 448.61L1449.27 451.09L1451.94 451.59L1449.92 453.4L1450.27 456.09L1450.27 456.09Z" />
				<path id="Layer" class="shp6" d="M1912.9 414.93L1910.55 413.57L1908.1 414.74L1908.66 412.08L1906.8 410.11L1909.5 409.83L1910.79 407.45L1911.9 409.93L1914.56 410.43L1912.55 412.24L1912.9 414.93L1912.9 414.93Z" />
				<path id="Layer" class="shp20" d="M1955.69 355.02L1953.34 353.66L1950.89 354.83L1951.45 352.18L1949.59 350.2L1952.29 349.92L1953.59 347.54L1954.69 350.02L1957.36 350.52L1955.34 352.33L1955.69 355.02L1955.69 355.02Z" />
				<path id="Layer" class="shp21" d="M1683.23 264.48L1683.23 344.74" />
				<path id="Layer" class="shp21" d="M1724.6 264.48L1724.6 344.74" />
				<path id="Layer" class="shp22" d="M1688.62 314.46L1685.62 321.67L1697.44 321.67L1693.91 314.3C1693.91 314.3 1689.44 313.53 1688.62 314.46Z" />
				<path id="Layer" class="shp22" d="M1712.87 314.46L1709.87 321.67L1721.69 321.67L1718.16 314.3C1718.16 314.3 1713.69 313.53 1712.87 314.46Z" />
				<path id="Layer" class="shp22" d="M1701.12 314.54L1698.54 323.05L1708.82 323.05L1705.75 314.36C1705.75 314.36 1701.84 313.45 1701.12 314.54Z" />
				<path id="Layer" class="shp23" d="M1686.72 260.58L1680.27 266.26L1680.27 313.69L1686.72 310.16L1686.72 260.58L1686.72 260.58Z" />
				<path id="Layer" class="shp23" d="M1720.48 260.58L1726.93 266.26L1726.93 313.69L1720.48 310.16L1720.48 260.58L1720.48 260.58Z" />
				<path id="Layer" class="shp2" d="M1681.42 328.11L1681.42 265.11C1681.42 247.61 1671.56 242.52 1671.56 242.52L1670.92 242.52C1670.92 242.52 1661.06 247.61 1661.06 265.11L1661.06 328.11L1681.42 328.11Z" />
				<path id="Layer" class="shp24" d="M1661.7 257.05L1680.89 257.05C1680.89 257.05 1678.12 245.05 1670.76 241.71C1669.52 242.61 1668.38 243.63 1667.35 244.76C1666.33 245.89 1665.42 247.13 1664.64 248.44C1663.86 249.76 1663.22 251.15 1662.73 252.59C1662.23 254.04 1661.89 255.53 1661.7 257.05Z" />
				<path id="Layer" class="shp25" d="M1661.06 328.11L1661.06 265.11C1661.06 265.11 1660.93 258.91 1661.7 257.06L1670 257.06L1670 328.28L1661.06 328.11Z" />
				<path id="Layer" class="shp22" d="M1661.06 328.11L1681.42 328.11L1678.89 332.57L1663.7 332.57L1661.06 328.11L1661.06 328.11Z" />
				<path id="Layer" class="shp2" d="M1746.8 328.11L1746.8 265.11C1746.8 247.61 1736.94 242.52 1736.94 242.52L1736.3 242.52C1736.3 242.52 1726.44 247.61 1726.44 265.11L1726.44 328.11L1746.8 328.11Z" />
				<path id="Layer" class="shp26" d="M1727.08 257.05L1746.27 257.05C1746.27 257.05 1743.51 245.05 1736.14 241.71C1734.9 242.61 1733.76 243.63 1732.73 244.76C1731.71 245.89 1730.8 247.13 1730.02 248.44C1729.24 249.76 1728.6 251.15 1728.11 252.59C1727.61 254.04 1727.27 255.53 1727.08 257.05Z" />
				<path id="Layer" class="shp25" d="M1726.44 328.11L1726.44 265.11C1726.44 265.11 1726.32 258.91 1727.08 257.06L1735.37 257.06L1735.37 328.28L1726.44 328.11Z" />
				<path id="Layer" class="shp2" d="M1718.56 314.54C1718.87 314.54 1719.18 314.48 1719.47 314.36C1719.76 314.24 1720.03 314.06 1720.25 313.84C1720.47 313.62 1720.64 313.35 1720.76 313.06C1720.88 312.77 1720.94 312.46 1720.94 312.15L1720.94 226.36C1720.94 204.53 1707.59 196.5 1704.68 195.01C1704.6 194.97 1704.51 194.93 1704.42 194.89C1704.33 194.86 1704.24 194.83 1704.15 194.81C1704.06 194.79 1703.97 194.77 1703.87 194.76C1703.78 194.75 1703.68 194.74 1703.59 194.74L1703.59 194.74C1703.49 194.74 1703.4 194.75 1703.3 194.76C1703.21 194.77 1703.12 194.78 1703.02 194.81C1702.93 194.83 1702.84 194.86 1702.75 194.89C1702.66 194.93 1702.57 194.97 1702.49 195.01C1699.59 196.5 1686.23 204.53 1686.23 226.36L1686.23 312.15C1686.23 312.46 1686.29 312.77 1686.41 313.06C1686.53 313.35 1686.71 313.62 1686.93 313.84C1687.15 314.06 1687.42 314.24 1687.71 314.36C1688 314.48 1688.31 314.54 1688.62 314.54L1718.56 314.54Z" />
				<path id="Layer" class="shp22" d="M1726.44 328.11L1746.8 328.11L1744.27 332.57L1729.08 332.57L1726.44 328.11L1726.44 328.11Z" />
				<path id="Layer" class="shp25" d="M1704.68 195C1704.68 195 1694.31 198.43 1693.93 213.92C1693.63 226.5 1693.78 308.92 1693.78 308.92C1693.78 308.92 1693.01 314.45 1696.54 314.45L1688.62 314.45C1688.62 314.45 1686.23 314.29 1686.23 312.14L1686.23 226.36C1686.23 226.36 1686.53 215 1690.86 207.02C1695.77 197.96 1702.49 195.02 1702.49 195.02C1702.49 195.02 1704.08 194.2 1704.68 195Z" />
				<path id="Layer" class="shp27" d="M1703.14 223.44C1703.14 223.44 1698.84 226.82 1693.93 236.49C1689.02 246.16 1689.02 260.89 1689.02 260.89L1686.1 264.11L1681.35 269.64C1681.07 270.19 1680.79 270.73 1680.49 271.27C1680.19 271.81 1679.88 272.34 1679.56 272.86C1679.24 273.39 1678.91 273.91 1678.57 274.42C1678.22 274.93 1677.87 275.43 1677.51 275.93C1674.29 280.69 1679.04 303.56 1679.35 304.79C1679.66 306.02 1681.65 306.63 1681.65 306.63L1686.26 296.19L1694.26 295.58C1694.26 295.58 1694.11 302.02 1698.1 303.87C1702.09 305.72 1706.54 302.64 1707.61 300.18C1707.76 299.84 1707.91 299.51 1708.05 299.17C1708.19 298.82 1708.32 298.48 1708.45 298.14C1708.58 297.79 1708.7 297.44 1708.82 297.09C1708.93 296.74 1709.05 296.39 1709.15 296.04L1720.81 296.81L1721.12 299.72C1721.12 299.72 1723.88 300.03 1724.49 301.26C1725.1 302.49 1726.34 305.86 1726.34 305.86C1726.34 305.86 1730.48 300.34 1730.79 288.52C1731.1 276.7 1726.34 271.17 1726.34 271.17L1720.81 264.73L1709.91 255.06L1703.14 223.44Z" />
				<path id="Layer" class="shp25" d="M1693.31 258.42C1693.31 258.42 1680.94 272.18 1678.94 276.64C1676.94 281.1 1679.94 303.07 1679.94 303.07L1681.28 302.98C1681.28 302.98 1681.39 295.22 1682.94 294.15C1684.49 293.08 1696.43 292.49 1696.43 292.49L1693.31 258.42Z" />
				<path id="Layer" class="shp28" d="M1692.33 262.65C1692.33 262.65 1684.83 271.01 1682.03 274.65C1679.23 278.29 1679.03 280.46 1679.21 285.14C1679.39 289.82 1680.76 302.95 1680.76 302.95L1679.97 303.1C1679.97 303.1 1678.19 287.48 1678.27 282.27C1678.35 277.06 1678.73 276.54 1680.82 273.42C1682.91 270.3 1692.75 258.5 1692.75 258.5L1692.33 262.65Z" />
				<path id="Layer" class="shp25" d="M1713.88 258.42C1713.88 258.42 1726.24 272.18 1728.24 276.64C1730.24 281.1 1727.24 303.07 1727.24 303.07L1725.9 302.98C1725.9 302.98 1725.79 295.22 1724.24 294.15C1722.69 293.08 1710.75 292.49 1710.75 292.49L1713.88 258.42Z" />
				<path id="Layer" class="shp28" d="M1714.85 262.65C1714.85 262.65 1722.35 271.01 1725.15 274.65C1727.95 278.29 1728.15 280.46 1727.98 285.14C1727.81 289.82 1726.42 302.95 1726.42 302.95L1727.21 303.1C1727.21 303.1 1728.99 287.48 1728.91 282.27C1728.83 277.06 1728.45 276.54 1726.36 273.42C1724.27 270.3 1714.44 258.5 1714.44 258.5L1714.85 262.65Z" />
				<path id="Layer" class="shp2" d="M1709.89 297.51C1709.89 297.51 1715.02 284.59 1715.35 264.05C1715.68 243.71 1708.86 229.23 1703.59 222.84L1703.59 222.64L1703.5 222.75L1703.42 222.64L1703.42 222.84C1698.14 229.23 1691.33 243.71 1691.66 264.05C1691.99 284.59 1697.12 297.51 1697.12 297.51L1709.89 297.51Z" />
				<path id="Layer" class="shp29" d="M1695 239.53C1695 239.53 1703.12 239.7 1712.06 239.53C1712.06 239.53 1708.25 228.11 1703.61 222.64C1702.62 223.89 1701.7 225.18 1700.84 226.52C1699.98 227.86 1699.18 229.24 1698.46 230.65C1697.74 232.07 1697.09 233.52 1696.51 235.01C1695.93 236.49 1695.43 238 1695 239.53L1695 239.53Z" />
				<path id="Layer" class="shp30" d="M1696.75 254.28L1710.59 254.28C1710.76 254.28 1710.92 254.24 1711.07 254.18C1711.22 254.11 1711.36 254.01 1711.47 253.89C1711.59 253.76 1711.67 253.62 1711.72 253.46C1711.78 253.3 1711.8 253.14 1711.78 252.97C1711.36 248.68 1709.56 235.23 1703.47 235.23C1697.38 235.23 1695.88 248.73 1695.56 253C1695.55 253.16 1695.57 253.33 1695.63 253.48C1695.68 253.64 1695.77 253.78 1695.88 253.9C1695.99 254.02 1696.12 254.11 1696.27 254.18C1696.42 254.24 1696.59 254.28 1696.75 254.28Z" />
				<path id="Layer" class="shp31" d="M1697.31 252.66L1710.06 252.66C1710.06 252.66 1709.16 236.88 1703.52 236.88C1697.88 236.88 1697.31 252.66 1697.31 252.66Z" />
				<path id="Layer" class="shp32" d="M1703.6 238.37L1702.44 252L1698 252C1698 252 1699 237.22 1703.6 238.37Z" />
				<path id="Layer" class="shp22" d="M1697.14 297.51L1709.88 297.51L1708.74 300.16L1697.97 300.16L1697.14 297.51L1697.14 297.51Z" />
				<path id="Layer" class="shp25" d="M1696.12 240.2C1696.05 240.2 1695.98 240.21 1695.92 240.23C1695.85 240.25 1695.79 240.28 1695.73 240.32C1695.68 240.36 1695.63 240.41 1695.59 240.46C1695.55 240.51 1695.51 240.58 1695.49 240.64C1694.93 242.22 1693.17 248.05 1693.17 263.05C1693.21 265.8 1693.33 268.55 1693.54 271.3C1693.75 274.04 1694.04 276.78 1694.41 279.51C1694.79 282.24 1695.25 284.95 1695.79 287.65C1696.34 290.35 1696.96 293.03 1697.67 295.69C1697.69 295.76 1697.72 295.83 1697.76 295.89C1697.8 295.95 1697.85 296 1697.91 296.04C1697.96 296.09 1698.03 296.12 1698.1 296.15C1698.17 296.17 1698.24 296.18 1698.31 296.18L1702.38 296.18C1702.47 296.18 1702.56 296.16 1702.65 296.12C1702.73 296.09 1702.81 296.03 1702.87 295.97C1702.94 295.9 1702.98 295.82 1703.01 295.73C1703.04 295.64 1703.06 295.55 1703.05 295.46C1702.7 291.11 1700.95 268.07 1701.73 256.15C1701.74 256.06 1701.72 255.97 1701.69 255.88C1701.66 255.79 1701.61 255.71 1701.55 255.65C1701.49 255.58 1701.41 255.53 1701.33 255.49C1701.24 255.46 1701.15 255.44 1701.06 255.44L1696.06 255.44C1696.04 255.44 1696.03 255.44 1696.01 255.45C1695.99 255.45 1695.98 255.45 1695.96 255.45C1695.94 255.45 1695.93 255.45 1695.91 255.45C1695.89 255.44 1695.88 255.44 1695.86 255.44C1695.49 255.31 1694.38 254.7 1694.66 251.66C1694.78 250.77 1694.92 249.88 1695.07 248.99C1695.22 248.1 1695.39 247.21 1695.56 246.32C1695.74 245.44 1695.93 244.56 1696.13 243.68C1696.33 242.8 1696.54 241.92 1696.77 241.05C1696.79 240.95 1696.79 240.85 1696.77 240.75C1696.75 240.65 1696.7 240.56 1696.64 240.48C1696.58 240.4 1696.5 240.34 1696.41 240.3C1696.32 240.25 1696.22 240.23 1696.12 240.23L1696.12 240.2Z" />
				<path id="Layer" class="shp21" d="M1658.53 344.74L1658.53 264.48C1658.53 264.48 1748.71 264.2 1748.71 264.48L1748.71 344.74" />
				<path id="Layer" class="shp21" d="M1658.53 264.48L1669.87 276.68L1658.67 287.88L1670.15 299.36L1658.38 311.13L1670 322.76L1659.08 333.68C1659.08 333.68 1670.99 342.47 1670.43 343.04L1670.43 264.77" />
				<path id="Layer" class="shp21" d="M1748.3 264.48L1737 276.68L1748.2 287.88L1736.71 299.36L1748.48 311.13L1736.85 322.76L1747.77 333.68C1747.77 333.68 1735.86 342.47 1736.43 343.04L1736.43 264.77" />
				<path id="Layer" class="shp33" d="M1831.23 475.35C1866.8 459.49 1888.15 444.06 1913.41 430.79C1868.22 376.1 1792.78 341.06 1706.57 341.06C1597.39 341.06 1504.57 398.12 1470.05 478.55C1492.05 488.18 1561.67 516.78 1625.55 518.41C1714.51 520.68 1784.2 496.31 1831.23 475.35Z" />
				<path id="Layer" class="shp34" d="M1995 623.23L1995 623.23C1995 623.23 1995 623.26 1995 623.23Z" />
				<path id="Layer" class="shp35" d="M1664.64 343.9C1664.64 343.9 1646.51 348.43 1639.15 355.51C1631.79 362.59 1645.1 363.44 1648.78 364.01C1652.46 364.58 1641.98 369.96 1656.15 376.48C1670.32 383 1703.46 386.96 1730.94 394.89C1758.42 402.82 1760.94 418.69 1743.4 435.12C1725.86 451.55 1690.71 453.25 1685.61 450.42C1680.51 447.59 1677.96 439.37 1650.2 441.35C1622.44 443.33 1598.35 463.17 1598.07 472.52C1597.79 481.87 1624.13 473.37 1643.4 490.36C1662.67 507.35 1635.46 518.36 1635.46 518.36C1630.23 518.53 1625 518.54 1619.77 518.38C1614.54 518.22 1609.32 517.89 1604.11 517.39C1598.9 516.89 1593.71 516.23 1588.54 515.4C1583.38 514.57 1578.24 513.57 1573.14 512.41C1540.84 504.76 1526.96 483.51 1545.94 461.7C1564.92 439.89 1608.27 431.39 1628.38 430.54C1648.49 429.69 1694.11 435.64 1704.31 427.7C1714.51 419.76 1682.21 411.56 1652.75 409.29C1623.29 407.02 1575.69 399.37 1586.75 380.96C1586.75 380.96 1570.31 379.54 1578.53 369.91C1578.52 370 1617.33 350.13 1664.64 343.9Z" />
				<path id="Layer" class="shp36" d="M1664.64 343.9C1664.64 343.9 1648.5 348.99 1640.85 354.66C1633.2 360.33 1641.08 363.42 1650.78 363.56C1650.78 363.56 1639.71 373.93 1671.44 380.72C1703.17 387.51 1756.32 393.5 1754.55 416.05C1754.55 416.05 1752.63 402.66 1725.84 394.86C1701.75 387.86 1686.26 386.67 1668.69 382.42C1651.12 378.17 1644.94 372.56 1647.78 365.2C1647.78 365.2 1633.42 365.06 1634.78 358.91C1636.39 351.72 1659.55 345 1664.64 343.9Z" />
				<path id="Layer" class="shp36" d="M1633.47 354.15C1633.53 354.13 1633.6 354.14 1633.65 354.17C1633.71 354.2 1633.75 354.25 1633.78 354.31C1633.8 354.36 1633.8 354.43 1633.78 354.49C1633.76 354.55 1633.72 354.6 1633.66 354.63C1633.03 354.98 1632.41 355.36 1631.81 355.77C1631.2 356.17 1630.62 356.6 1630.05 357.05C1629.48 357.5 1628.93 357.97 1628.4 358.46C1627.86 358.95 1627.35 359.47 1626.86 360C1622.48 364.79 1635.2 366.84 1638.07 367.52C1640.94 368.2 1636.43 371.35 1642.72 378.46C1649.01 385.57 1667.19 388 1671 388C1674.81 388 1665.12 390.6 1650.63 387.72C1636.14 384.84 1633.63 373.92 1633.63 371.32C1633.63 368.72 1616.82 369.54 1615.18 365.85C1613.76 362.56 1625 356.69 1633.47 354.15Z" />
				<path id="Layer" class="shp36" d="M1578.52 370C1577.96 370.43 1577.46 370.95 1577.06 371.54C1576.66 372.13 1576.35 372.77 1576.14 373.46C1575.94 374.14 1575.84 374.85 1575.86 375.56C1575.87 376.27 1576 376.98 1576.23 377.65C1577.81 382.57 1586.06 381.65 1586.06 381.65C1586.06 381.65 1578.16 389.73 1595.2 398.34C1612.24 406.95 1655.29 409.76 1656.52 409.76C1657.75 409.76 1614.88 404.84 1599.59 396.41C1584.3 387.98 1591.16 379.89 1591.34 378.84C1591.52 377.79 1574.49 381.11 1578.52 370Z" />
				<path id="Layer" class="shp37" d="M1706.24 425C1706.24 425 1703.95 431.85 1685.33 431.5C1666.71 431.15 1627 426.06 1593.8 435.9C1560.6 445.74 1549 458.42 1549 458.42C1552.51 456.16 1556.12 454.06 1559.81 452.11C1563.49 450.16 1567.26 448.36 1571.1 446.73C1574.94 445.1 1578.85 443.63 1582.82 442.32C1586.78 441.02 1590.8 439.88 1594.86 438.92C1621.04 432.92 1645.28 433.12 1665.49 434C1685.7 434.88 1704.13 435.58 1706.24 425Z" />
				<path id="Layer" class="shp38" d="M1660.03 465.1C1648.76 465.1 1639.65 460.46 1639.65 454.73C1639.65 449 1648.76 444.36 1660.03 444.36C1671.3 444.36 1680.41 449 1680.41 454.73C1680.41 460.46 1671.3 465.1 1660.03 465.1Z" />
				<path id="Layer" class="shp39" d="M1653 476.52C1648.63 476.52 1645.09 474.63 1645.09 472.3C1645.09 469.97 1648.63 468.08 1653 468.08C1657.37 468.08 1660.91 469.97 1660.91 472.3C1660.91 474.63 1657.37 476.52 1653 476.52Z" />
				<path id="Layer" class="shp40" d="M1553.39 383.76C1553.93 383.43 1546.18 391.84 1556.72 404.14C1567.26 416.44 1595.72 420.3 1598.54 420.47C1601.36 420.64 1581.32 425.92 1555.54 424.34C1529.76 422.76 1519.7 418.89 1524.45 405.19C1526.73 403.23 1529.04 401.31 1531.38 399.44C1533.73 397.56 1536.11 395.73 1538.53 393.94C1540.94 392.15 1543.39 390.41 1545.86 388.71C1548.34 387.02 1550.85 385.37 1553.39 383.76Z" />
				<path id="Layer" class="shp41" d="M1492.07 440.15C1492.07 440.15 1511.57 442.08 1517.37 458.77C1523.17 475.46 1500.37 481.97 1493.83 481.09C1487.29 480.21 1501.56 476.69 1506.83 466.15C1512.1 455.61 1487.83 454.91 1475.73 466.33C1475.73 466.33 1483.29 451.4 1492.07 440.15Z" />
				<path id="Layer" class="shp42" d="M1731.88 342C1731.29 341.95 1715.64 342.75 1709.03 347.85C1702.42 352.95 1723.57 359.37 1723.57 359.37C1723.57 359.37 1707.57 362.77 1720.17 369.19C1732.77 375.61 1741.89 370.14 1769.09 378.07C1796.29 386 1800.25 395.26 1814.8 397.9C1829.35 400.54 1824.24 390.16 1824.24 390.16C1824.24 390.16 1841.8 400.16 1858.05 400.74C1874.3 401.32 1857.05 381.47 1847.47 376.37C1847.47 376.38 1799.12 346.92 1731.88 342Z" />
				<path id="Layer" class="shp43" d="M1813.72 415.99C1812.08 419.84 1803.07 419.68 1793.55 415.64C1784.03 411.59 1777.66 405.22 1779.29 401.38C1780.92 397.54 1789.93 397.7 1799.45 401.74C1808.97 405.78 1815.35 412.15 1813.72 415.99Z" />
				<path id="Layer" class="shp44" d="M1857.54 426.61C1856.48 428.83 1851.17 428.49 1845.67 425.85C1840.17 423.21 1836.59 419.27 1837.66 417.05C1838.73 414.83 1844.04 415.17 1849.53 417.81C1855.03 420.45 1858.61 424.38 1857.54 426.61Z" />
				<path id="Layer" class="shp36" d="M1731.08 342.05C1729.76 342.06 1728.45 342.11 1727.13 342.2C1725.82 342.3 1724.51 342.45 1723.21 342.64C1721.91 342.83 1720.61 343.06 1719.33 343.34C1718.04 343.62 1716.76 343.95 1715.5 344.32C1707.71 346.73 1706.29 349.32 1708.7 352.54C1711.11 355.76 1722.44 359.48 1722.44 359.48C1722.44 359.48 1716.63 360.89 1714.93 363.73C1713.23 366.57 1718.33 371.38 1729.93 372.65C1741.53 373.92 1755.42 373.22 1776.93 380.58C1775.45 379.77 1773.93 379.01 1772.39 378.31C1770.85 377.61 1769.28 376.97 1767.69 376.39C1766.1 375.81 1764.49 375.29 1762.86 374.83C1761.23 374.37 1759.59 373.97 1757.93 373.64C1746.18 371.09 1732.15 371.38 1726.35 369.96C1720.55 368.54 1712.75 364.15 1724.22 359.62C1724.22 359.62 1709.63 354.09 1711.05 349.42C1712.47 344.75 1731.08 342.05 1731.08 342.05Z" />
				<path id="Layer" class="shp37" d="M1797.94 390.78C1797.94 390.78 1808.28 398.86 1818.62 398.57C1828.96 398.28 1825 390.92 1825 390.92C1825 390.92 1842.42 399.71 1856.58 401.12C1870.74 402.53 1864.94 388.8 1851.63 378.88C1851.63 378.88 1862.96 390.36 1862.53 395.17C1862.1 399.98 1852.9 398.29 1842.53 395.17C1840.55 394.53 1838.58 393.86 1836.63 393.16C1834.67 392.46 1832.72 391.73 1830.78 390.98C1828.85 390.22 1826.92 389.44 1825.01 388.63C1823.09 387.81 1821.19 386.98 1819.3 386.11C1817.41 385.24 1824.68 391.11 1822.56 394.47C1820.44 397.83 1805.16 395.74 1797.94 390.78Z" />
				<path id="Layer" class="shp37" d="M1780.79 406.86C1780.79 406.86 1775.79 402.26 1781.22 399.14C1786.65 396.02 1802.05 400.41 1809.13 407.21C1816.21 414.01 1813.03 416.93 1813.03 416.93C1813.03 416.93 1814.09 412.46 1805.73 406.22C1797.37 399.98 1787.73 398.57 1783.63 400.7C1783.07 400.96 1782.56 401.31 1782.12 401.75C1781.69 402.19 1781.33 402.7 1781.08 403.26C1780.82 403.82 1780.66 404.42 1780.61 405.03C1780.56 405.65 1780.62 406.27 1780.79 406.86L1780.79 406.86Z" />
				<path id="Layer" class="shp45" d="M1331.02 251.02C1302.01 251.02 1278.56 227.57 1278.56 198.56C1278.56 169.55 1302.01 146.1 1331.02 146.1C1360.03 146.1 1383.48 169.55 1383.48 198.56C1383.48 227.57 1360.03 251.02 1331.02 251.02Z" />
				<path id="Layer" class="shp46" d="M1300.2 161.48C1288.86 170.27 1282.35 186.41 1290.56 195.48C1298.77 204.55 1324.56 190.95 1329.38 177.35C1334.2 163.75 1320.88 159.78 1316.06 161.2C1316.06 161.2 1318.61 158.08 1328.53 161.2C1338.45 164.32 1339.53 177.06 1331.36 185.28C1323.19 193.5 1312.94 197.18 1307.28 204.54C1301.62 211.9 1301.28 218.71 1293.11 221.54C1284.94 224.37 1278.46 207.02 1278.56 198.54C1278.56 198.54 1276.4 214.44 1290.56 232.29C1304.72 250.14 1346.66 240.5 1360.26 230.29C1373.86 220.08 1382.07 206.49 1380.94 203.66C1379.81 200.83 1376.12 202.52 1374.94 208.75C1373.76 214.98 1360.49 228.3 1340.66 228.59C1320.83 228.88 1316.86 215.59 1319.98 205.35C1323.1 195.11 1344.62 191.19 1355.39 179.29C1366.16 167.39 1345.76 150.96 1328.48 151.53C1325.94 151.61 1323.41 151.88 1320.92 152.35C1318.42 152.81 1315.96 153.47 1313.57 154.31C1311.17 155.15 1308.85 156.18 1306.61 157.38C1304.37 158.58 1302.23 159.95 1300.2 161.48L1300.2 161.48Z" />
				<g id="Layer" style="opacity: 0.502">
					<path id="Layer" class="shp47" d="M1383.49 198.28C1383.5 187.94 1380.44 177.82 1374.71 169.21C1368.99 160.6 1360.84 153.87 1351.3 149.87C1341.76 145.88 1331.25 144.79 1321.09 146.76C1310.94 148.72 1301.59 153.64 1294.22 160.9C1304.61 152.23 1317.95 147.9 1331.45 148.83C1344.95 149.76 1357.57 155.87 1366.67 165.89C1375.77 175.9 1380.65 189.05 1380.29 202.57C1379.92 216.1 1374.35 228.97 1364.72 238.48C1367.65 236.03 1370.31 233.26 1372.64 230.23C1374.97 227.21 1376.96 223.93 1378.57 220.47C1380.19 217 1381.42 213.37 1382.25 209.64C1383.08 205.91 1383.49 202.1 1383.49 198.28Z" />
				</g>
				<path id="Layer" class="shp48" d="M762.67 317.3C739.81 317.3 721.34 298.83 721.34 275.97C721.34 253.11 739.81 234.64 762.67 234.64C785.53 234.64 804 253.11 804 275.97C804 298.83 785.53 317.3 762.67 317.3Z" />
				<path id="Layer" class="shp49" d="M738.38 246.76C729.45 253.68 724.32 266.4 730.79 273.54C737.26 280.68 757.57 269.97 761.37 259.26C765.17 248.55 754.67 245.42 750.88 246.54C750.88 246.54 752.88 244.08 760.7 246.54C768.52 249 769.4 259.03 762.93 265.54C756.46 272.05 748.42 274.91 743.93 280.71C739.44 286.51 739.24 291.87 732.77 294.1C726.3 296.33 721.23 282.67 721.31 276C721.31 276 719.6 288.52 730.76 302.58C741.92 316.64 775 309 785.7 301C796.4 293 802.88 282.26 801.99 280C801.1 277.74 798.19 279.11 797.3 284C796.41 288.89 785.92 299.4 770.3 299.62C754.68 299.84 751.55 289.36 754 281.32C756.45 273.28 773.42 270.16 781.9 260.79C790.38 251.42 774.31 238.5 760.7 239C758.7 239.05 756.71 239.26 754.74 239.62C752.77 239.98 750.83 240.49 748.94 241.15C747.05 241.81 745.21 242.61 743.44 243.55C741.68 244.49 739.98 245.56 738.38 246.76Z" />
				<g id="Layer" style="opacity: 0.502">
					<path id="Layer" class="shp50" d="M804 275.75C804 267.6 801.59 259.64 797.08 252.85C792.57 246.07 786.15 240.77 778.63 237.63C771.12 234.48 762.84 233.62 754.84 235.17C746.84 236.71 739.47 240.58 733.67 246.3C741.85 239.47 752.36 236.07 762.99 236.81C773.62 237.54 783.56 242.36 790.73 250.25C797.9 258.13 801.74 268.48 801.46 279.14C801.17 289.79 796.79 299.92 789.21 307.42C791.52 305.49 793.61 303.31 795.45 300.92C797.28 298.54 798.85 295.96 800.13 293.23C801.4 290.5 802.37 287.64 803.02 284.7C803.67 281.76 804 278.76 804 275.75L804 275.75Z" />
				</g>
				<path id="Layer" class="shp51" d="M1048.63 247.53C1002.1 247.53 964.49 209.92 964.49 163.39C964.49 116.86 1002.1 79.25 1048.63 79.25C1095.16 79.25 1132.77 116.86 1132.77 163.39C1132.77 209.92 1095.16 247.53 1048.63 247.53Z" />
				<path id="Layer" class="shp52" d="M1044.09 242.07C1004.6 242.07 972.68 210.15 972.68 170.66C972.68 131.17 1004.6 99.25 1044.09 99.25C1083.58 99.25 1115.5 131.17 1115.5 170.66C1115.5 210.15 1083.58 242.07 1044.09 242.07Z" />
				<path id="Layer" class="shp53" d="M973.06 125.62C973.06 125.62 974.06 136.74 992.7 137.4C1011.34 138.06 1021.5 116.4 1030.99 105.65C1040.48 94.9 1055.86 86.34 1070.91 91.58C1085.96 96.82 1086.62 116.78 1079.09 125.29C1071.56 133.8 1056.84 130.2 1053.89 123C1050.94 115.8 1054.89 105.33 1063.71 105.33C1072.53 105.33 1074.19 108.92 1074.19 108.92C1074.19 108.92 1076.8 101.4 1071.89 96.49C1066.98 91.58 1049.64 90.6 1039.5 104.67C1029.36 118.74 1028 139.36 1014 157C1000 174.64 973.42 166.17 965.24 153.4C965.21 153.43 967.5 136.09 973.06 125.62Z" />
				<path id="Layer" class="shp54" d="M976.71 177.71C976.31 177.34 976.05 176.85 975.97 176.31C975.88 175.77 975.98 175.22 976.25 174.75C976.52 174.28 976.94 173.91 977.45 173.71C977.95 173.5 978.51 173.48 979.03 173.63C984.24 175.17 991.89 175.87 1002.51 173.4C1026.4 167.83 1044.73 145.25 1057.17 139.4C1069.61 133.55 1092.51 135.47 1102.98 126.96C1113.45 118.45 1112.8 124.67 1111.82 129.58C1110.84 134.49 1102.98 134.49 1085.31 136.45C1067.64 138.41 1057.82 146.27 1048.99 159.69C1040.16 173.11 1024.77 187.51 1000.88 186.85C989.21 186.49 981.52 182.11 976.71 177.71Z" />
				<path id="Layer" class="shp55" d="M1121 124.6C1120.89 124.4 1120.71 124.25 1120.5 124.17C1120.29 124.09 1120.06 124.08 1119.84 124.15C1119.62 124.22 1119.44 124.36 1119.31 124.54C1119.18 124.73 1119.12 124.95 1119.14 125.18C1119.88 129.88 1119.74 136.38 1115.4 141.98C1107.55 152.12 1077.4 149.18 1061.4 162.6C1045.4 176.02 1044.4 189.1 1019.84 197.94C995.28 206.78 976 194 974.37 197.29C972.74 200.58 988.44 214.63 1007.75 218.23C1027.06 221.83 1039.82 189.43 1050.29 178.63C1060.76 167.83 1071.29 174.05 1097.42 170.45C1121.06 167.2 1130.29 143.4 1121 124.6Z" />
				<path id="Layer" class="shp56" d="M1073.86 185.18C1047.17 191.33 1023.13 214.3 1028.7 222.18C1034.27 230.06 1094.15 211.7 1110.18 194.03C1126.21 176.36 1086.62 182.23 1073.86 185.18Z" />
				<path id="Layer" class="shp57" d="M989.6 103C990.23 102.13 978.3 113.51 983.21 121.36C988.12 129.21 1020.21 110.23 1025.75 99.43C1031.29 88.63 1015.61 90.6 1007.42 96.49C999.23 102.38 1010.04 98.49 1011.02 102.71C1012 106.93 1003.82 114.16 995.64 116.78C987.46 119.4 982.25 113.12 989.6 103Z" />
				<path id="Layer" class="shp58" d="M999.51 226.81C999.21 226.53 999.03 226.14 999 225.73C998.96 225.32 999.08 224.92 999.33 224.59C999.57 224.26 999.93 224.03 1000.33 223.95C1000.74 223.87 1001.15 223.93 1001.51 224.14C1008.62 227.71 1021.51 231.53 1042.51 229.03C1078.18 224.78 1097.82 207.1 1102.07 206.78C1106.32 206.46 1083.75 230.99 1055.6 237.54C1032.23 243 1010.28 237.83 999.51 226.81Z" />
				<g id="Layer" style="opacity: 0.502">
					<path id="Layer" class="shp59" d="M1132.76 162.94C1132.76 146.35 1127.86 130.14 1118.68 116.33C1109.49 102.52 1096.43 91.73 1081.13 85.33C1065.83 78.92 1048.98 77.18 1032.69 80.33C1016.41 83.47 1001.41 91.36 989.6 103C1006.25 89 1027.67 82 1049.37 83.45C1071.07 84.91 1091.37 94.72 1105.99 110.81C1120.62 126.91 1128.44 148.05 1127.82 169.79C1127.2 191.53 1118.18 212.18 1102.66 227.42C1107.36 223.49 1111.62 219.05 1115.35 214.19C1119.09 209.33 1122.28 204.08 1124.88 198.52C1127.47 192.97 1129.44 187.15 1130.77 181.17C1132.1 175.18 1132.76 169.07 1132.76 162.94Z" />
				</g>
				<path id="Layer" class="shp60" d="M1218.53 125.28C1216.13 116.53 1187.46 118.28 1163.84 121.28C1152.08 122.79 1138.78 125 1124.84 127.68C1125.11 128.25 1125.4 128.85 1125.65 129.44C1139.37 126.82 1152.46 124.63 1164.05 123.14C1195.48 119.14 1215.16 120.08 1216.71 125.73C1218.26 131.38 1201.83 142.25 1172.71 154.83C1142.38 168 1101 182 1056.3 194.28C1011.6 206.56 968.87 215.63 936 219.85C904.58 223.85 884.9 222.91 883.35 217.26C881.8 211.61 898.23 200.73 927.35 188.16C938.57 183.31 951.29 178.34 965.12 173.39C965.03 172.71 964.96 172.07 964.89 171.48C950.89 176.48 937.97 181.53 926.61 186.48C904.75 195.94 879.19 209.04 881.61 217.8C884.03 226.56 912.68 224.8 936.31 221.74C969.23 217.52 1012.03 208.43 1056.84 196.13C1101.65 183.83 1143.09 169.81 1173.55 156.63C1195.38 147.14 1220.94 134 1218.53 125.28Z" />
				<path id="Layer" class="shp61" d="M899.03 208.79C894.74 208.79 891.27 205.32 891.27 201.03C891.27 196.74 894.74 193.27 899.03 193.27C903.32 193.27 906.79 196.74 906.79 201.03C906.79 205.32 903.32 208.79 899.03 208.79Z" />
				<path id="Layer" class="shp62" d="M898.61 208.28C894.97 208.28 892.03 205.34 892.03 201.7C892.03 198.06 894.97 195.12 898.61 195.12C902.25 195.12 905.19 198.06 905.19 201.7C905.19 205.34 902.25 208.28 898.61 208.28Z" />
				<g id="Layer" style="opacity: 0.502">
					<path id="Layer" class="shp63" d="M906.78 201C906.78 199.47 906.33 197.98 905.48 196.71C904.64 195.43 903.43 194.44 902.02 193.85C900.61 193.26 899.06 193.1 897.56 193.39C896.06 193.68 894.68 194.41 893.59 195.48C895.13 194.21 897.09 193.59 899.08 193.73C901.06 193.87 902.92 194.77 904.26 196.25C905.6 197.72 906.32 199.65 906.27 201.65C906.22 203.64 905.41 205.53 904 206.94C904.43 206.58 904.83 206.17 905.17 205.72C905.52 205.27 905.81 204.79 906.05 204.28C906.29 203.77 906.47 203.23 906.6 202.68C906.72 202.13 906.78 201.56 906.78 201Z" />
				</g>
				<path id="Layer" class="shp64" d="M1383.99 327.07C1374.28 327.07 1366.44 319.23 1366.44 309.52C1366.44 299.81 1374.28 291.97 1383.99 291.97C1393.7 291.97 1401.54 299.81 1401.54 309.52C1401.54 319.23 1393.7 327.07 1383.99 327.07Z" />
				<path id="Layer" class="shp65" d="M1383.04 325.92C1374.81 325.92 1368.15 319.26 1368.15 311.03C1368.15 302.8 1374.81 296.14 1383.04 296.14C1391.27 296.14 1397.93 302.8 1397.93 311.03C1397.93 319.26 1391.27 325.92 1383.04 325.92Z" />
				<g id="Layer" style="opacity: 0.502">
					<path id="Layer" class="shp66" d="M1401.54 309.42C1401.54 305.96 1400.52 302.58 1398.61 299.69C1396.69 296.81 1393.97 294.56 1390.77 293.23C1387.58 291.89 1384.06 291.53 1380.67 292.18C1377.27 292.84 1374.14 294.49 1371.68 296.92C1375.16 294.04 1379.61 292.61 1384.11 292.93C1388.62 293.25 1392.83 295.29 1395.86 298.63C1398.9 301.98 1400.53 306.36 1400.42 310.87C1400.31 315.39 1398.46 319.68 1395.26 322.87C1396.24 322.05 1397.13 321.12 1397.91 320.11C1398.69 319.1 1399.35 318 1399.89 316.84C1400.43 315.68 1400.85 314.47 1401.12 313.22C1401.4 311.97 1401.54 310.7 1401.54 309.42Z" />
				</g>
				<path id="Layer" class="shp67" d="M940.46 230.4C932.92 230.4 926.83 224.31 926.83 216.77C926.83 209.23 932.92 203.14 940.46 203.14C948 203.14 954.09 209.23 954.09 216.77C954.09 224.31 948 230.4 940.46 230.4Z" />
				<path id="Layer" class="shp68" d="M939.72 229.52C933.32 229.52 928.15 224.35 928.15 217.95C928.15 211.55 933.32 206.38 939.72 206.38C946.12 206.38 951.29 211.55 951.29 217.95C951.29 224.35 946.12 229.52 939.72 229.52Z" />
				<g id="Layer" style="opacity: 0.502">
					<path id="Layer" class="shp69" d="M954.09 216.69C954.09 214 953.3 211.37 951.81 209.14C950.32 206.9 948.2 205.15 945.72 204.11C943.24 203.07 940.51 202.79 937.87 203.3C935.23 203.81 932.8 205.09 930.89 206.98C933.59 204.71 937.06 203.57 940.58 203.81C944.09 204.04 947.38 205.63 949.76 208.24C952.13 210.85 953.4 214.28 953.29 217.8C953.19 221.32 951.73 224.67 949.21 227.14C949.97 226.5 950.66 225.78 951.27 225C951.87 224.21 952.39 223.36 952.81 222.46C953.23 221.56 953.55 220.61 953.77 219.64C953.98 218.67 954.09 217.68 954.09 216.69Z" />
				</g>
				<g id="Layer">
					<path id="Layer" class="shp70" d="M1040.18 509.52C1092.63 513.19 1150.72 485.52 1189.78 452.77C1188.71 450.99 1188.02 450.13 1186.85 448.38C1172.96 427.59 1153.29 411.31 1130.26 401.57C1107.22 391.82 1081.85 389.03 1057.25 393.54C1032.65 398.05 1009.91 409.66 991.84 426.94C973.76 444.23 961.14 466.42 955.53 490.79C971.86 496.76 1004.3 507 1040.18 509.52Z" />
					<path id="Layer" class="shp71" d="M1049.66 395C1049.66 395 1063.29 397 1052.79 430.35C1042.29 463.7 1013.57 484.64 1012.9 489.77C1012.23 494.9 1020.32 493 1047.16 470.98C1074 448.96 1092.23 410.4 1092.08 391.78C1092.08 391.82 1066.74 389.32 1049.66 395Z" />
					<path id="Layer" class="shp72" d="M967.5 458.78C967.5 458.78 960.25 474.33 976.7 475.12C993.15 475.91 1022.15 437.76 1029.56 425.49C1036.97 413.22 1033.68 432.61 1016.36 460.1C999.04 487.59 968.47 500.96 957.36 483.86C957.93 481.67 958.57 479.5 959.28 477.36C959.99 475.21 960.77 473.09 961.62 470.99C962.47 468.9 963.38 466.83 964.36 464.79C965.34 462.75 966.39 460.75 967.5 458.78L967.5 458.78Z" />
					<path id="Layer" class="shp73" d="M1036.31 509.53C1036.31 509.53 1065.25 499.44 1090.12 459.89C1114.99 420.34 1111.22 395.15 1111.22 395.15L1117.22 396.91C1117.22 396.91 1121.79 412.33 1113.74 446.06C1112.55 451.09 1111.21 456.08 1109.71 461.03C1108.22 465.97 1106.57 470.87 1104.78 475.72C1102.98 480.56 1101.04 485.35 1098.95 490.08C1096.86 494.81 1094.63 499.47 1092.26 504.06C1087.71 505.27 1083.12 506.29 1078.49 507.13C1073.85 507.96 1069.19 508.61 1064.51 509.07C1059.82 509.53 1055.12 509.8 1050.42 509.87C1045.71 509.95 1041.01 509.83 1036.31 509.53L1036.31 509.53Z" />
					<path id="Layer" class="shp74" d="M1139.81 406C1139.81 406 1143.81 422.45 1139.25 443.32C1134.69 464.19 1127.6 480.72 1128.34 482.78C1129.08 484.84 1152.26 448.01 1150.39 412.31C1150.39 412.31 1141.72 407 1139.81 406Z" />
					<g id="Layer" style="opacity: 0.502">
						<path id="Layer" class="shp75" d="M1186.59 448.34C1172.7 427.54 1153.03 411.27 1130 401.52C1106.97 391.78 1081.59 388.99 1056.99 393.5C1032.39 398.01 1009.66 409.62 991.58 426.9C973.51 444.18 960.89 466.38 955.28 490.75C956.21 491.09 957.2 491.45 958.28 491.81C964.92 468.38 978.11 447.33 996.29 431.12C1014.47 414.92 1036.9 404.24 1060.94 400.34C1084.98 396.43 1109.63 399.46 1132.01 409.07C1154.39 418.68 1173.56 434.48 1187.28 454.6L1189.56 452.73C1188.45 451 1187.76 450.09 1186.59 448.34Z" />
					</g>
				</g>
			</g>
		</g>
	</g>
</svg>